<?xml version="1.0" encoding="utf-8" standalone="no"?>
<!DOCTYPE svg PUBLIC "-//W3C//DTD SVG 1.1//EN"
  "http://www.w3.org/Graphics/SVG/1.1/DTD/svg11.dtd">
<svg xmlns:xlink="http://www.w3.org/1999/xlink" width="460.8pt" height="345.6pt" viewBox="0 0 460.8 345.6" xmlns="http://www.w3.org/2000/svg" version="1.1">
 <metadata>
  <rdf:RDF xmlns:dc="http://purl.org/dc/elements/1.1/" xmlns:cc="http://creativecommons.org/ns#" xmlns:rdf="http://www.w3.org/1999/02/22-rdf-syntax-ns#">
   <cc:Work>
    <dc:type rdf:resource="http://purl.org/dc/dcmitype/StillImage"/>
    <dc:date>2024-11-23T15:26:25.799930</dc:date>
    <dc:format>image/svg+xml</dc:format>
    <dc:creator>
     <cc:Agent>
      <dc:title>Matplotlib v3.9.2, https://matplotlib.org/</dc:title>
     </cc:Agent>
    </dc:creator>
   </cc:Work>
  </rdf:RDF>
 </metadata>
 <defs>
  <style type="text/css">*{stroke-linejoin: round; stroke-linecap: butt}</style>
 </defs>
 <g id="figure_1">
  <g id="patch_1">
   <path d="M 0 345.6 
L 460.8 345.6 
L 460.8 0 
L 0 0 
z
" style="fill: #ffffff"/>
  </g>
  <g id="axes_1">
   <g id="patch_2">
    <path d="M 45.741555 309.135792 
Q 71.722519 279.907208 96.960702 251.514252 
" clip-path="url(#p8c858f384f)" style="fill: none; stroke: #4c4c4c; stroke-linecap: round"/>
    <path d="M 95.715019 252.012525 
L 96.960702 251.514252 
L 96.611911 252.809762 
" clip-path="url(#p8c858f384f)" style="fill: none; stroke: #4c4c4c; stroke-linecap: round"/>
   </g>
   <g id="patch_3">
    <path d="M 47.537138 311.362839 
Q 166.928434 244.205235 285.345279 177.59576 
" clip-path="url(#p8c858f384f)" style="fill: none; stroke: #4c4c4c; stroke-linecap: round"/>
    <path d="M 284.005232 177.661128 
L 285.345279 177.59576 
L 284.593545 178.707019 
" clip-path="url(#p8c858f384f)" style="fill: none; stroke: #4c4c4c; stroke-linecap: round"/>
   </g>
   <g id="patch_4">
    <path d="M 48.645093 315.609917 
Q 71.720716 315.609917 93.678304 315.609917 
" clip-path="url(#p8c858f384f)" style="fill: none; stroke: #4c4c4c; stroke-linecap: round"/>
    <path d="M 92.478304 315.009917 
L 93.678304 315.609917 
L 92.478304 316.209917 
" clip-path="url(#p8c858f384f)" style="fill: none; stroke: #4c4c4c; stroke-linecap: round"/>
   </g>
   <g id="patch_5">
    <path d="M 48.327428 241.859151 
Q 166.931049 208.501882 284.458393 175.447317 
" clip-path="url(#p8c858f384f)" style="fill: none; stroke: #4c4c4c; stroke-linecap: round"/>
    <path d="M 283.140765 175.194621 
L 284.458393 175.447317 
L 283.465659 176.349802 
" clip-path="url(#p8c858f384f)" style="fill: none; stroke: #4c4c4c; stroke-linecap: round"/>
   </g>
   <g id="patch_6">
    <path d="M 45.741555 237.730834 
Q 71.722519 208.502249 96.960702 180.109293 
" clip-path="url(#p8c858f384f)" style="fill: none; stroke: #4c4c4c; stroke-linecap: round"/>
    <path d="M 95.715019 180.607566 
L 96.960702 180.109293 
L 96.611911 181.404803 
" clip-path="url(#p8c858f384f)" style="fill: none; stroke: #4c4c4c; stroke-linecap: round"/>
   </g>
   <g id="patch_7">
    <path d="M 48.327428 241.859151 
Q 103.460402 226.353001 157.517101 211.149555 
" clip-path="url(#p8c858f384f)" style="fill: none; stroke: #4c4c4c; stroke-linecap: round"/>
    <path d="M 156.199472 210.896859 
L 157.517101 211.149555 
L 156.524367 212.05204 
" clip-path="url(#p8c858f384f)" style="fill: none; stroke: #4c4c4c; stroke-linecap: round"/>
   </g>
   <g id="patch_8">
    <path d="M 48.645093 172.8 
Q 166.926891 172.8 284.090654 172.8 
" clip-path="url(#p8c858f384f)" style="fill: none; stroke: #4c4c4c; stroke-linecap: round"/>
    <path d="M 282.890654 172.2 
L 284.090654 172.8 
L 282.890654 173.4 
" clip-path="url(#p8c858f384f)" style="fill: none; stroke: #4c4c4c; stroke-linecap: round"/>
   </g>
   <g id="patch_9">
    <path d="M 48.647998 172.8 
Q 230.399113 172.8 411.032194 172.8 
" clip-path="url(#p8c858f384f)" style="fill: none; stroke: #4c4c4c; stroke-linecap: round"/>
    <path d="M 409.832194 172.2 
L 411.032194 172.8 
L 409.832194 173.4 
" clip-path="url(#p8c858f384f)" style="fill: none; stroke: #4c4c4c; stroke-linecap: round"/>
   </g>
   <g id="patch_10">
    <path d="M 43.502402 164.889844 
Q 71.720875 101.39828 99.485271 38.928388 
" clip-path="url(#p8c858f384f)" style="fill: none; stroke: #4c4c4c; stroke-linecap: round"/>
    <path d="M 98.449618 39.781279 
L 99.485271 38.928388 
L 99.546192 40.268645 
" clip-path="url(#p8c858f384f)" style="fill: none; stroke: #4c4c4c; stroke-linecap: round"/>
   </g>
   <g id="patch_11">
    <path d="M 48.436867 103.296312 
Q 198.663837 137.09738 347.800042 170.653026 
" clip-path="url(#p8c858f384f)" style="fill: none; stroke: #4c4c4c; stroke-linecap: round"/>
    <path d="M 346.761017 169.804245 
L 347.800042 170.653026 
L 346.497603 170.974977 
" clip-path="url(#p8c858f384f)" style="fill: none; stroke: #4c4c4c; stroke-linecap: round"/>
   </g>
   <g id="patch_12">
    <path d="M 45.741555 36.464208 
Q 71.722519 65.692792 96.960702 94.085748 
" clip-path="url(#p8c858f384f)" style="fill: none; stroke: #4c4c4c; stroke-linecap: round"/>
    <path d="M 96.611911 92.790238 
L 96.960702 94.085748 
L 95.715019 93.587475 
" clip-path="url(#p8c858f384f)" style="fill: none; stroke: #4c4c4c; stroke-linecap: round"/>
   </g>
   <g id="patch_13">
    <path d="M 111.008213 311.362839 
Q 230.399509 244.205235 348.816354 177.59576 
" clip-path="url(#p8c858f384f)" style="fill: none; stroke: #4c4c4c; stroke-linecap: round"/>
    <path d="M 347.476306 177.661128 
L 348.816354 177.59576 
L 348.06462 178.707019 
" clip-path="url(#p8c858f384f)" style="fill: none; stroke: #4c4c4c; stroke-linecap: round"/>
   </g>
   <g id="patch_14">
    <path d="M 107.872237 308.160642 
Q 135.193705 262.055664 161.945197 216.912521 
" clip-path="url(#p8c858f384f)" style="fill: none; stroke: #4c4c4c; stroke-linecap: round"/>
    <path d="M 160.817259 217.63899 
L 161.945197 216.912521 
L 161.849609 218.250753 
" clip-path="url(#p8c858f384f)" style="fill: none; stroke: #4c4c4c; stroke-linecap: round"/>
   </g>
   <g id="patch_15">
    <path d="M 106.358484 307.451888 
Q 135.193123 226.354465 163.65321 146.31047 
" clip-path="url(#p8c858f384f)" style="fill: none; stroke: #4c4c4c; stroke-linecap: round"/>
    <path d="M 162.68587 147.240121 
L 163.65321 146.31047 
L 163.816528 147.642133 
" clip-path="url(#p8c858f384f)" style="fill: none; stroke: #4c4c4c; stroke-linecap: round"/>
   </g>
   <g id="patch_16">
    <path d="M 111.907942 242.303688 
Q 262.134911 208.50262 411.271116 174.946974 
" clip-path="url(#p8c858f384f)" style="fill: none; stroke: #4c4c4c; stroke-linecap: round"/>
    <path d="M 409.968677 174.625023 
L 411.271116 174.946974 
L 410.232092 175.795755 
" clip-path="url(#p8c858f384f)" style="fill: none; stroke: #4c4c4c; stroke-linecap: round"/>
   </g>
   <g id="patch_17">
    <path d="M 112.116167 172.8 
Q 230.397965 172.8 347.561728 172.8 
" clip-path="url(#p8c858f384f)" style="fill: none; stroke: #4c4c4c; stroke-linecap: round"/>
    <path d="M 346.361728 172.2 
L 347.561728 172.8 
L 346.361728 173.4 
" clip-path="url(#p8c858f384f)" style="fill: none; stroke: #4c4c4c; stroke-linecap: round"/>
   </g>
   <g id="patch_18">
    <path d="M 174.479287 204.255401 
Q 198.666429 190.650134 221.87912 177.592995 
" clip-path="url(#p8c858f384f)" style="fill: none; stroke: #4c4c4c; stroke-linecap: round"/>
    <path d="M 220.539072 177.658363 
L 221.87912 177.592995 
L 221.127386 178.704254 
" clip-path="url(#p8c858f384f)" style="fill: none; stroke: #4c4c4c; stroke-linecap: round"/>
   </g>
   <g id="patch_19">
    <path d="M 239.058316 172.8 
Q 262.133939 172.8 284.091527 172.8 
" clip-path="url(#p8c858f384f)" style="fill: none; stroke: #4c4c4c; stroke-linecap: round"/>
    <path d="M 282.891527 172.2 
L 284.091527 172.8 
L 282.891527 173.4 
" clip-path="url(#p8c858f384f)" style="fill: none; stroke: #4c4c4c; stroke-linecap: round"/>
   </g>
   <g id="patch_20">
    <path d="M 302.52939 172.8 
Q 357.341428 172.8 411.035432 172.8 
" clip-path="url(#p8c858f384f)" style="fill: none; stroke: #4c4c4c; stroke-linecap: round"/>
    <path d="M 409.835432 172.2 
L 411.035432 172.8 
L 409.835432 173.4 
" clip-path="url(#p8c858f384f)" style="fill: none; stroke: #4c4c4c; stroke-linecap: round"/>
   </g>
   <g id="patch_21">
    <path d="M 302.52939 172.8 
Q 325.605013 172.8 347.562602 172.8 
" clip-path="url(#p8c858f384f)" style="fill: none; stroke: #4c4c4c; stroke-linecap: round"/>
    <path d="M 346.362602 172.2 
L 347.562602 172.8 
L 346.362602 173.4 
" clip-path="url(#p8c858f384f)" style="fill: none; stroke: #4c4c4c; stroke-linecap: round"/>
   </g>
   <g id="patch_22">
    <path d="M 366.000465 172.8 
Q 389.076087 172.8 411.033676 172.8 
" clip-path="url(#p8c858f384f)" style="fill: none; stroke: #4c4c4c; stroke-linecap: round"/>
    <path d="M 409.833676 172.2 
L 411.033676 172.8 
L 409.833676 173.4 
" clip-path="url(#p8c858f384f)" style="fill: none; stroke: #4c4c4c; stroke-linecap: round"/>
   </g>
   <g id="PathCollection_1">
    <path d="M 39.986777 324.270171 
C 42.283503 324.270171 44.486471 323.357672 46.110501 321.733642 
C 47.734532 320.109611 48.647031 317.906644 48.647031 315.609917 
C 48.647031 313.313191 47.734532 311.110224 46.110501 309.486193 
C 44.486471 307.862162 42.283503 306.949663 39.986777 306.949663 
C 37.690051 306.949663 35.487083 307.862162 33.863053 309.486193 
C 32.239022 311.110224 31.326523 313.313191 31.326523 315.609917 
C 31.326523 317.906644 32.239022 320.109611 33.863053 321.733642 
C 35.487083 323.357672 37.690051 324.270171 39.986777 324.270171 
z
" clip-path="url(#p8c858f384f)" style="fill: #ffff00; stroke: #000000"/>
    <path d="M 39.986777 252.865213 
C 42.283503 252.865213 44.486471 251.952714 46.110501 250.328683 
C 47.734532 248.704652 48.647031 246.501685 48.647031 244.204959 
C 48.647031 241.908232 47.734532 239.705265 46.110501 238.081234 
C 44.486471 236.457204 42.283503 235.544705 39.986777 235.544705 
C 37.690051 235.544705 35.487083 236.457204 33.863053 238.081234 
C 32.239022 239.705265 31.326523 241.908232 31.326523 244.204959 
C 31.326523 246.501685 32.239022 248.704652 33.863053 250.328683 
C 35.487083 251.952714 37.690051 252.865213 39.986777 252.865213 
z
" clip-path="url(#p8c858f384f)" style="fill: #ffff00; stroke: #000000"/>
    <path d="M 39.986777 181.460254 
C 42.283503 181.460254 44.486471 180.547755 46.110501 178.923724 
C 47.734532 177.299694 48.647031 175.096726 48.647031 172.8 
C 48.647031 170.503274 47.734532 168.300306 46.110501 166.676276 
C 44.486471 165.052245 42.283503 164.139746 39.986777 164.139746 
C 37.690051 164.139746 35.487083 165.052245 33.863053 166.676276 
C 32.239022 168.300306 31.326523 170.503274 31.326523 172.8 
C 31.326523 175.096726 32.239022 177.299694 33.863053 178.923724 
C 35.487083 180.547755 37.690051 181.460254 39.986777 181.460254 
z
" clip-path="url(#p8c858f384f)" style="fill: #ffff00; stroke: #000000"/>
    <path d="M 39.986777 110.055295 
C 42.283503 110.055295 44.486471 109.142796 46.110501 107.518766 
C 47.734532 105.894735 48.647031 103.691768 48.647031 101.395041 
C 48.647031 99.098315 47.734532 96.895348 46.110501 95.271317 
C 44.486471 93.647286 42.283503 92.734787 39.986777 92.734787 
C 37.690051 92.734787 35.487083 93.647286 33.863053 95.271317 
C 32.239022 96.895348 31.326523 99.098315 31.326523 101.395041 
C 31.326523 103.691768 32.239022 105.894735 33.863053 107.518766 
C 35.487083 109.142796 37.690051 110.055295 39.986777 110.055295 
z
" clip-path="url(#p8c858f384f)" style="fill: #ffff00; stroke: #000000"/>
    <path d="M 39.986777 38.650337 
C 42.283503 38.650337 44.486471 37.737838 46.110501 36.113807 
C 47.734532 34.489776 48.647031 32.286809 48.647031 29.990083 
C 48.647031 27.693356 47.734532 25.490389 46.110501 23.866358 
C 44.486471 22.242328 42.283503 21.329829 39.986777 21.329829 
C 37.690051 21.329829 35.487083 22.242328 33.863053 23.866358 
C 32.239022 25.490389 31.326523 27.693356 31.326523 29.990083 
C 31.326523 32.286809 32.239022 34.489776 33.863053 36.113807 
C 35.487083 37.737838 37.690051 38.650337 39.986777 38.650337 
z
" clip-path="url(#p8c858f384f)" style="fill: #ffffff; stroke: #000000"/>
    <path d="M 103.457851 324.270171 
C 105.754577 324.270171 107.957545 323.357672 109.581576 321.733642 
C 111.205606 320.109611 112.118105 317.906644 112.118105 315.609917 
C 112.118105 313.313191 111.205606 311.110224 109.581576 309.486193 
C 107.957545 307.862162 105.754577 306.949663 103.457851 306.949663 
C 101.161125 306.949663 98.958158 307.862162 97.334127 309.486193 
C 95.710096 311.110224 94.797597 313.313191 94.797597 315.609917 
C 94.797597 317.906644 95.710096 320.109611 97.334127 321.733642 
C 98.958158 323.357672 101.161125 324.270171 103.457851 324.270171 
z
" clip-path="url(#p8c858f384f)" style="fill: #ffffff; stroke: #000000"/>
    <path d="M 103.457851 252.865213 
C 105.754577 252.865213 107.957545 251.952714 109.581576 250.328683 
C 111.205606 248.704652 112.118105 246.501685 112.118105 244.204959 
C 112.118105 241.908232 111.205606 239.705265 109.581576 238.081234 
C 107.957545 236.457204 105.754577 235.544705 103.457851 235.544705 
C 101.161125 235.544705 98.958158 236.457204 97.334127 238.081234 
C 95.710096 239.705265 94.797597 241.908232 94.797597 244.204959 
C 94.797597 246.501685 95.710096 248.704652 97.334127 250.328683 
C 98.958158 251.952714 101.161125 252.865213 103.457851 252.865213 
z
" clip-path="url(#p8c858f384f)" style="fill: #ffffff; stroke: #000000"/>
    <path d="M 103.457851 181.460254 
C 105.754577 181.460254 107.957545 180.547755 109.581576 178.923724 
C 111.205606 177.299694 112.118105 175.096726 112.118105 172.8 
C 112.118105 170.503274 111.205606 168.300306 109.581576 166.676276 
C 107.957545 165.052245 105.754577 164.139746 103.457851 164.139746 
C 101.161125 164.139746 98.958158 165.052245 97.334127 166.676276 
C 95.710096 168.300306 94.797597 170.503274 94.797597 172.8 
C 94.797597 175.096726 95.710096 177.299694 97.334127 178.923724 
C 98.958158 180.547755 101.161125 181.460254 103.457851 181.460254 
z
" clip-path="url(#p8c858f384f)" style="fill: #ffffff; stroke: #000000"/>
    <path d="M 103.457851 110.055295 
C 105.754577 110.055295 107.957545 109.142796 109.581576 107.518766 
C 111.205606 105.894735 112.118105 103.691768 112.118105 101.395041 
C 112.118105 99.098315 111.205606 96.895348 109.581576 95.271317 
C 107.957545 93.647286 105.754577 92.734787 103.457851 92.734787 
C 101.161125 92.734787 98.958158 93.647286 97.334127 95.271317 
C 95.710096 96.895348 94.797597 99.098315 94.797597 101.395041 
C 94.797597 103.691768 95.710096 105.894735 97.334127 107.518766 
C 98.958158 109.142796 101.161125 110.055295 103.457851 110.055295 
z
" clip-path="url(#p8c858f384f)" style="fill: #ffffff; stroke: #000000"/>
    <path d="M 103.457851 38.650337 
C 105.754577 38.650337 107.957545 37.737838 109.581576 36.113807 
C 111.205606 34.489776 112.118105 32.286809 112.118105 29.990083 
C 112.118105 27.693356 111.205606 25.490389 109.581576 23.866358 
C 107.957545 22.242328 105.754577 21.329829 103.457851 21.329829 
C 101.161125 21.329829 98.958158 22.242328 97.334127 23.866358 
C 95.710096 25.490389 94.797597 27.693356 94.797597 29.990083 
C 94.797597 32.286809 95.710096 34.489776 97.334127 36.113807 
C 98.958158 37.737838 101.161125 38.650337 103.457851 38.650337 
z
" clip-path="url(#p8c858f384f)" style="fill: #ffffff; stroke: #000000"/>
    <path d="M 166.928926 217.162733 
C 169.225652 217.162733 171.428619 216.250234 173.05265 214.626204 
C 174.676681 213.002173 175.58918 210.799206 175.58918 208.502479 
C 175.58918 206.205753 174.676681 204.002786 173.05265 202.378755 
C 171.428619 200.754724 169.225652 199.842225 166.928926 199.842225 
C 164.632199 199.842225 162.429232 200.754724 160.805201 202.378755 
C 159.181171 204.002786 158.268672 206.205753 158.268672 208.502479 
C 158.268672 210.799206 159.181171 213.002173 160.805201 214.626204 
C 162.429232 216.250234 164.632199 217.162733 166.928926 217.162733 
z
" clip-path="url(#p8c858f384f)" style="fill: #ffffff; stroke: #000000"/>
    <path d="M 166.928926 145.757775 
C 169.225652 145.757775 171.428619 144.845276 173.05265 143.221245 
C 174.676681 141.597214 175.58918 139.394247 175.58918 137.097521 
C 175.58918 134.800794 174.676681 132.597827 173.05265 130.973796 
C 171.428619 129.349766 169.225652 128.437267 166.928926 128.437267 
C 164.632199 128.437267 162.429232 129.349766 160.805201 130.973796 
C 159.181171 132.597827 158.268672 134.800794 158.268672 137.097521 
C 158.268672 139.394247 159.181171 141.597214 160.805201 143.221245 
C 162.429232 144.845276 164.632199 145.757775 166.928926 145.757775 
z
" clip-path="url(#p8c858f384f)" style="fill: #ffffff; stroke: #000000"/>
    <path d="M 230.4 181.460254 
C 232.696726 181.460254 234.899694 180.547755 236.523724 178.923724 
C 238.147755 177.299694 239.060254 175.096726 239.060254 172.8 
C 239.060254 170.503274 238.147755 168.300306 236.523724 166.676276 
C 234.899694 165.052245 232.696726 164.139746 230.4 164.139746 
C 228.103274 164.139746 225.900306 165.052245 224.276276 166.676276 
C 222.652245 168.300306 221.739746 170.503274 221.739746 172.8 
C 221.739746 175.096726 222.652245 177.299694 224.276276 178.923724 
C 225.900306 180.547755 228.103274 181.460254 230.4 181.460254 
z
" clip-path="url(#p8c858f384f)" style="fill: #ffffff; stroke: #000000"/>
    <path d="M 293.871074 181.460254 
C 296.167801 181.460254 298.370768 180.547755 299.994799 178.923724 
C 301.618829 177.299694 302.531328 175.096726 302.531328 172.8 
C 302.531328 170.503274 301.618829 168.300306 299.994799 166.676276 
C 298.370768 165.052245 296.167801 164.139746 293.871074 164.139746 
C 291.574348 164.139746 289.371381 165.052245 287.74735 166.676276 
C 286.123319 168.300306 285.21082 170.503274 285.21082 172.8 
C 285.21082 175.096726 286.123319 177.299694 287.74735 178.923724 
C 289.371381 180.547755 291.574348 181.460254 293.871074 181.460254 
z
" clip-path="url(#p8c858f384f)" style="fill: #ffffff; stroke: #000000"/>
    <path d="M 357.342149 181.460254 
C 359.638875 181.460254 361.841842 180.547755 363.465873 178.923724 
C 365.089904 177.299694 366.002403 175.096726 366.002403 172.8 
C 366.002403 170.503274 365.089904 168.300306 363.465873 166.676276 
C 361.841842 165.052245 359.638875 164.139746 357.342149 164.139746 
C 355.045423 164.139746 352.842455 165.052245 351.218424 166.676276 
C 349.594394 168.300306 348.681895 170.503274 348.681895 172.8 
C 348.681895 175.096726 349.594394 177.299694 351.218424 178.923724 
C 352.842455 180.547755 355.045423 181.460254 357.342149 181.460254 
z
" clip-path="url(#p8c858f384f)" style="fill: #ffffff; stroke: #000000"/>
    <path d="M 420.813223 181.460254 
C 423.109949 181.460254 425.312917 180.547755 426.936947 178.923724 
C 428.560978 177.299694 429.473477 175.096726 429.473477 172.8 
C 429.473477 170.503274 428.560978 168.300306 426.936947 166.676276 
C 425.312917 165.052245 423.109949 164.139746 420.813223 164.139746 
C 418.516497 164.139746 416.313529 165.052245 414.689499 166.676276 
C 413.065468 168.300306 412.152969 170.503274 412.152969 172.8 
C 412.152969 175.096726 413.065468 177.299694 414.689499 178.923724 
C 416.313529 180.547755 418.516497 181.460254 420.813223 181.460254 
z
" clip-path="url(#p8c858f384f)" style="fill: #0000ff; stroke: #000000"/>
   </g>
  </g>
 </g>
 <defs>
  <clipPath id="p8c858f384f">
   <rect x="0" y="0" width="460.8" height="345.6"/>
  </clipPath>
 </defs>
</svg>
