<?xml version="1.0" encoding="utf-8" standalone="no"?>
<!DOCTYPE svg PUBLIC "-//W3C//DTD SVG 1.1//EN"
  "http://www.w3.org/Graphics/SVG/1.1/DTD/svg11.dtd">
<svg xmlns:xlink="http://www.w3.org/1999/xlink" width="460.8pt" height="345.6pt" viewBox="0 0 460.8 345.6" xmlns="http://www.w3.org/2000/svg" version="1.1">
 <metadata>
  <rdf:RDF xmlns:dc="http://purl.org/dc/elements/1.1/" xmlns:cc="http://creativecommons.org/ns#" xmlns:rdf="http://www.w3.org/1999/02/22-rdf-syntax-ns#">
   <cc:Work>
    <dc:type rdf:resource="http://purl.org/dc/dcmitype/StillImage"/>
    <dc:date>2024-07-15T20:16:30.367839</dc:date>
    <dc:format>image/svg+xml</dc:format>
    <dc:creator>
     <cc:Agent>
      <dc:title>Matplotlib v3.9.0, https://matplotlib.org/</dc:title>
     </cc:Agent>
    </dc:creator>
   </cc:Work>
  </rdf:RDF>
 </metadata>
 <defs>
  <style type="text/css">*{stroke-linejoin: round; stroke-linecap: butt}</style>
 </defs>
 <g id="figure_1">
  <g id="patch_1">
   <path d="M 0 345.6 
L 460.8 345.6 
L 460.8 0 
L 0 0 
z
" style="fill: #ffffff"/>
  </g>
  <g id="axes_1">
   <g id="patch_2">
    <path d="M 47.206883 310.831906 
Q 135.193305 252.605597 222.247362 194.996295 
" clip-path="url(#p9c7e32ac4e)" style="fill: none; stroke: #4c4c4c; stroke-linecap: round"/>
    <path d="M 220.915524 195.158176 
L 222.247362 194.996295 
L 221.577764 196.158894 
" clip-path="url(#p9c7e32ac4e)" style="fill: none; stroke: #4c4c4c; stroke-linecap: round"/>
   </g>
   <g id="patch_3">
    <path d="M 46.480514 276.277816 
Q 87.589542 240.005144 127.860227 204.472187 
" clip-path="url(#p9c7e32ac4e)" style="fill: none; stroke: #4c4c4c; stroke-linecap: round"/>
    <path d="M 126.563448 204.81623 
L 127.860227 204.472187 
L 127.357394 205.716036 
" clip-path="url(#p9c7e32ac4e)" style="fill: none; stroke: #4c4c4c; stroke-linecap: round"/>
   </g>
   <g id="patch_4">
    <path d="M 45.434543 258.476824 
Q 87.589809 206.402672 129.04161 155.197506 
" clip-path="url(#p9c7e32ac4e)" style="fill: none; stroke: #4c4c4c; stroke-linecap: round"/>
    <path d="M 127.820225 155.752681 
L 129.04161 155.197506 
L 128.752919 156.507719 
" clip-path="url(#p9c7e32ac4e)" style="fill: none; stroke: #4c4c4c; stroke-linecap: round"/>
   </g>
   <g id="patch_5">
    <path d="M 47.061609 260.212418 
Q 87.589371 231.604586 127.203736 203.641505 
" clip-path="url(#p9c7e32ac4e)" style="fill: none; stroke: #4c4c4c; stroke-linecap: round"/>
    <path d="M 125.877365 203.843344 
L 127.203736 203.641505 
L 126.569384 204.823705 
" clip-path="url(#p9c7e32ac4e)" style="fill: none; stroke: #4c4c4c; stroke-linecap: round"/>
   </g>
   <g id="patch_6">
    <path d="M 48.297889 245.960806 
Q 182.799136 206.401615 316.227779 167.157897 
" clip-path="url(#p9c7e32ac4e)" style="fill: none; stroke: #4c4c4c; stroke-linecap: round"/>
    <path d="M 314.907241 166.920877 
L 316.227779 167.157897 
L 315.245841 168.072116 
" clip-path="url(#p9c7e32ac4e)" style="fill: none; stroke: #4c4c4c; stroke-linecap: round"/>
   </g>
   <g id="patch_7">
    <path d="M 47.642704 244.352112 
Q 87.590643 223.203204 126.550477 202.577409 
" clip-path="url(#p9c7e32ac4e)" style="fill: none; stroke: #4c4c4c; stroke-linecap: round"/>
    <path d="M 125.209199 202.608602 
L 126.550477 202.577409 
L 125.770664 203.669147 
" clip-path="url(#p9c7e32ac4e)" style="fill: none; stroke: #4c4c4c; stroke-linecap: round"/>
   </g>
   <g id="patch_8">
    <path d="M 48.154068 228.72151 
Q 87.589776 214.803025 125.971188 201.256644 
" clip-path="url(#p9c7e32ac4e)" style="fill: none; stroke: #4c4c4c; stroke-linecap: round"/>
    <path d="M 124.639908 201.090234 
L 125.971188 201.256644 
L 125.039292 202.221823 
" clip-path="url(#p9c7e32ac4e)" style="fill: none; stroke: #4c4c4c; stroke-linecap: round"/>
   </g>
   <g id="patch_9">
    <path d="M 48.514347 213.298052 
Q 87.588427 206.402626 125.561486 199.701498 
" clip-path="url(#p9c7e32ac4e)" style="fill: none; stroke: #4c4c4c; stroke-linecap: round"/>
    <path d="M 124.275474 199.31917 
L 125.561486 199.701498 
L 124.484017 200.50091 
" clip-path="url(#p9c7e32ac4e)" style="fill: none; stroke: #4c4c4c; stroke-linecap: round"/>
   </g>
   <g id="patch_10">
    <path d="M 48.647998 198.00175 
Q 87.590519 198.00175 125.415005 198.00175 
" clip-path="url(#p9c7e32ac4e)" style="fill: none; stroke: #4c4c4c; stroke-linecap: round"/>
    <path d="M 124.215005 197.40175 
L 125.415005 198.00175 
L 124.215005 198.60175 
" clip-path="url(#p9c7e32ac4e)" style="fill: none; stroke: #4c4c4c; stroke-linecap: round"/>
   </g>
   <g id="patch_11">
    <path d="M 48.647998 181.200583 
Q 87.590519 181.200583 125.415005 181.200583 
" clip-path="url(#p9c7e32ac4e)" style="fill: none; stroke: #4c4c4c; stroke-linecap: round"/>
    <path d="M 124.215005 180.600583 
L 125.415005 181.200583 
L 124.215005 181.800583 
" clip-path="url(#p9c7e32ac4e)" style="fill: none; stroke: #4c4c4c; stroke-linecap: round"/>
   </g>
   <g id="patch_12">
    <path d="M 48.154068 167.28199 
Q 87.589776 181.200475 125.971188 194.746856 
" clip-path="url(#p9c7e32ac4e)" style="fill: none; stroke: #4c4c4c; stroke-linecap: round"/>
    <path d="M 125.039292 193.781678 
L 125.971188 194.746856 
L 124.639908 194.913266 
" clip-path="url(#p9c7e32ac4e)" style="fill: none; stroke: #4c4c4c; stroke-linecap: round"/>
   </g>
   <g id="patch_13">
    <path d="M 47.061609 135.791082 
Q 87.589371 164.398915 127.203736 192.361995 
" clip-path="url(#p9c7e32ac4e)" style="fill: none; stroke: #4c4c4c; stroke-linecap: round"/>
    <path d="M 126.569384 191.179795 
L 127.203736 192.361995 
L 125.877365 192.160156 
" clip-path="url(#p9c7e32ac4e)" style="fill: none; stroke: #4c4c4c; stroke-linecap: round"/>
   </g>
   <g id="patch_14">
    <path d="M 48.444615 132.662783 
Q 135.19521 151.798943 220.854018 170.694269 
" clip-path="url(#p9c7e32ac4e)" style="fill: none; stroke: #4c4c4c; stroke-linecap: round"/>
    <path d="M 219.811435 169.849863 
L 220.854018 170.694269 
L 219.552944 171.021691 
" clip-path="url(#p9c7e32ac4e)" style="fill: none; stroke: #4c4c4c; stroke-linecap: round"/>
   </g>
   <g id="patch_15">
    <path d="M 46.480514 119.725684 
Q 87.589542 155.998357 127.860227 191.531313 
" clip-path="url(#p9c7e32ac4e)" style="fill: none; stroke: #4c4c4c; stroke-linecap: round"/>
    <path d="M 127.357394 190.287464 
L 127.860227 191.531313 
L 126.563448 191.18727 
" clip-path="url(#p9c7e32ac4e)" style="fill: none; stroke: #4c4c4c; stroke-linecap: round"/>
   </g>
   <g id="patch_16">
    <path d="M 46.480514 86.123351 
Q 87.589542 122.396023 127.860227 157.92898 
" clip-path="url(#p9c7e32ac4e)" style="fill: none; stroke: #4c4c4c; stroke-linecap: round"/>
    <path d="M 127.357394 156.685131 
L 127.860227 157.92898 
L 126.563448 157.584936 
" clip-path="url(#p9c7e32ac4e)" style="fill: none; stroke: #4c4c4c; stroke-linecap: round"/>
   </g>
   <g id="patch_17">
    <path d="M 48.149709 66.473451 
Q 182.794799 113.995247 316.385593 161.14494 
" clip-path="url(#p9c7e32ac4e)" style="fill: none; stroke: #4c4c4c; stroke-linecap: round"/>
    <path d="M 315.453697 160.179761 
L 316.385593 161.14494 
L 315.054313 161.31135 
" clip-path="url(#p9c7e32ac4e)" style="fill: none; stroke: #4c4c4c; stroke-linecap: round"/>
   </g>
   <g id="patch_18">
    <path d="M 44.602124 54.121507 
Q 87.589985 122.396344 129.982142 189.725065 
" clip-path="url(#p9c7e32ac4e)" style="fill: none; stroke: #4c4c4c; stroke-linecap: round"/>
    <path d="M 129.850506 188.389897 
L 129.982142 189.725065 
L 128.835026 189.029273 
" clip-path="url(#p9c7e32ac4e)" style="fill: none; stroke: #4c4c4c; stroke-linecap: round"/>
   </g>
   <g id="patch_19">
    <path d="M 44.256373 37.524663 
Q 87.590075 113.995903 130.372573 189.494429 
" clip-path="url(#p9c7e32ac4e)" style="fill: none; stroke: #4c4c4c; stroke-linecap: round"/>
    <path d="M 130.302971 188.154595 
L 130.372573 189.494429 
L 129.258945 188.74621 
" clip-path="url(#p9c7e32ac4e)" style="fill: none; stroke: #4c4c4c; stroke-linecap: round"/>
   </g>
   <g id="patch_20">
    <path d="M 143.819744 198.762899 
Q 182.796448 202.20202 220.659446 205.542873 
" clip-path="url(#p9c7e32ac4e)" style="fill: none; stroke: #4c4c4c; stroke-linecap: round"/>
    <path d="M 219.516826 204.839722 
L 220.659446 205.542873 
L 219.411353 206.035078 
" clip-path="url(#p9c7e32ac4e)" style="fill: none; stroke: #4c4c4c; stroke-linecap: round"/>
   </g>
   <g id="patch_21">
    <path d="M 142.558768 193.452545 
Q 182.79476 168.600903 222.07953 144.33678 
" clip-path="url(#p9c7e32ac4e)" style="fill: none; stroke: #4c4c4c; stroke-linecap: round"/>
    <path d="M 220.743277 144.456893 
L 222.07953 144.33678 
L 221.373868 145.477851 
" clip-path="url(#p9c7e32ac4e)" style="fill: none; stroke: #4c4c4c; stroke-linecap: round"/>
   </g>
   <g id="patch_22">
    <path d="M 143.116619 194.506207 
Q 182.79609 177.000558 221.452651 159.946193 
" clip-path="url(#p9c7e32ac4e)" style="fill: none; stroke: #4c4c4c; stroke-linecap: round"/>
    <path d="M 220.112565 159.881611 
L 221.452651 159.946193 
L 220.596933 160.979512 
" clip-path="url(#p9c7e32ac4e)" style="fill: none; stroke: #4c4c4c; stroke-linecap: round"/>
   </g>
   <g id="patch_23">
    <path d="M 143.819744 197.240601 
Q 182.796448 193.80148 220.659446 190.460627 
" clip-path="url(#p9c7e32ac4e)" style="fill: none; stroke: #4c4c4c; stroke-linecap: round"/>
    <path d="M 219.411353 189.968422 
L 220.659446 190.460627 
L 219.516826 191.163778 
" clip-path="url(#p9c7e32ac4e)" style="fill: none; stroke: #4c4c4c; stroke-linecap: round"/>
   </g>
   <g id="patch_24">
    <path d="M 143.818292 197.240729 
Q 278.002505 185.400946 411.073011 173.659431 
" clip-path="url(#p9c7e32ac4e)" style="fill: none; stroke: #4c4c4c; stroke-linecap: round"/>
    <path d="M 409.824919 173.167225 
L 411.073011 173.659431 
L 409.930391 174.362581 
" clip-path="url(#p9c7e32ac4e)" style="fill: none; stroke: #4c4c4c; stroke-linecap: round"/>
   </g>
   <g id="patch_25">
    <path d="M 143.564062 195.785983 
Q 182.796321 185.400974 220.94777 175.302061 
" clip-path="url(#p9c7e32ac4e)" style="fill: none; stroke: #4c4c4c; stroke-linecap: round"/>
    <path d="M 219.634188 175.029109 
L 220.94777 175.302061 
L 219.941259 176.189155 
" clip-path="url(#p9c7e32ac4e)" style="fill: none; stroke: #4c4c4c; stroke-linecap: round"/>
   </g>
   <g id="patch_26">
    <path d="M 142.558768 152.147455 
Q 182.79476 176.999097 222.07953 201.26322 
" clip-path="url(#p9c7e32ac4e)" style="fill: none; stroke: #4c4c4c; stroke-linecap: round"/>
    <path d="M 221.373868 200.122149 
L 222.07953 201.26322 
L 220.743277 201.143107 
" clip-path="url(#p9c7e32ac4e)" style="fill: none; stroke: #4c4c4c; stroke-linecap: round"/>
   </g>
   <g id="patch_27">
    <path d="M 239.026356 156.759982 
Q 278.00306 160.199103 315.866057 163.539956 
" clip-path="url(#p9c7e32ac4e)" style="fill: none; stroke: #4c4c4c; stroke-linecap: round"/>
    <path d="M 314.723438 162.836805 
L 315.866057 163.539956 
L 314.617965 164.032161 
" clip-path="url(#p9c7e32ac4e)" style="fill: none; stroke: #4c4c4c; stroke-linecap: round"/>
   </g>
   <g id="patch_28">
    <path d="M 238.323231 142.69321 
Q 278.002701 160.198858 316.659262 177.253223 
" clip-path="url(#p9c7e32ac4e)" style="fill: none; stroke: #4c4c4c; stroke-linecap: round"/>
    <path d="M 315.803545 176.219904 
L 316.659262 177.253223 
L 315.319177 177.317806 
" clip-path="url(#p9c7e32ac4e)" style="fill: none; stroke: #4c4c4c; stroke-linecap: round"/>
   </g>
   <g id="patch_29">
    <path d="M 334.232967 180.439434 
Q 373.209672 177.000313 411.072669 173.659461 
" clip-path="url(#p9c7e32ac4e)" style="fill: none; stroke: #4c4c4c; stroke-linecap: round"/>
    <path d="M 409.824577 173.167255 
L 411.072669 173.659461 
L 409.930049 174.362611 
" clip-path="url(#p9c7e32ac4e)" style="fill: none; stroke: #4c4c4c; stroke-linecap: round"/>
   </g>
   <g id="PathCollection_1">
    <path d="M 39.986777 324.270171 
C 42.283503 324.270171 44.486471 323.357672 46.110501 321.733642 
C 47.734532 320.109611 48.647031 317.906644 48.647031 315.609917 
C 48.647031 313.313191 47.734532 311.110224 46.110501 309.486193 
C 44.486471 307.862162 42.283503 306.949663 39.986777 306.949663 
C 37.690051 306.949663 35.487083 307.862162 33.863053 309.486193 
C 32.239022 311.110224 31.326523 313.313191 31.326523 315.609917 
C 31.326523 317.906644 32.239022 320.109611 33.863053 321.733642 
C 35.487083 323.357672 37.690051 324.270171 39.986777 324.270171 
z
" clip-path="url(#p9c7e32ac4e)" style="fill: #ffff00; stroke: #000000"/>
    <path d="M 39.986777 307.469005 
C 42.283503 307.469005 44.486471 306.556506 46.110501 304.932475 
C 47.734532 303.308444 48.647031 301.105477 48.647031 298.808751 
C 48.647031 296.512024 47.734532 294.309057 46.110501 292.685026 
C 44.486471 291.060996 42.283503 290.148497 39.986777 290.148497 
C 37.690051 290.148497 35.487083 291.060996 33.863053 292.685026 
C 32.239022 294.309057 31.326523 296.512024 31.326523 298.808751 
C 31.326523 301.105477 32.239022 303.308444 33.863053 304.932475 
C 35.487083 306.556506 37.690051 307.469005 39.986777 307.469005 
z
" clip-path="url(#p9c7e32ac4e)" style="fill: #ffff00; stroke: #000000"/>
    <path d="M 39.986777 290.667838 
C 42.283503 290.667838 44.486471 289.755339 46.110501 288.131308 
C 47.734532 286.507278 48.647031 284.30431 48.647031 282.007584 
C 48.647031 279.710858 47.734532 277.50789 46.110501 275.88386 
C 44.486471 274.259829 42.283503 273.34733 39.986777 273.34733 
C 37.690051 273.34733 35.487083 274.259829 33.863053 275.88386 
C 32.239022 277.50789 31.326523 279.710858 31.326523 282.007584 
C 31.326523 284.30431 32.239022 286.507278 33.863053 288.131308 
C 35.487083 289.755339 37.690051 290.667838 39.986777 290.667838 
z
" clip-path="url(#p9c7e32ac4e)" style="fill: #ffff00; stroke: #000000"/>
    <path d="M 39.986777 273.866671 
C 42.283503 273.866671 44.486471 272.954172 46.110501 271.330141 
C 47.734532 269.706111 48.647031 267.503143 48.647031 265.206417 
C 48.647031 262.909691 47.734532 260.706723 46.110501 259.082693 
C 44.486471 257.458662 42.283503 256.546163 39.986777 256.546163 
C 37.690051 256.546163 35.487083 257.458662 33.863053 259.082693 
C 32.239022 260.706723 31.326523 262.909691 31.326523 265.206417 
C 31.326523 267.503143 32.239022 269.706111 33.863053 271.330141 
C 35.487083 272.954172 37.690051 273.866671 39.986777 273.866671 
z
" clip-path="url(#p9c7e32ac4e)" style="fill: #ffff00; stroke: #000000"/>
    <path d="M 39.986777 257.065504 
C 42.283503 257.065504 44.486471 256.153005 46.110501 254.528975 
C 47.734532 252.904944 48.647031 250.701977 48.647031 248.40525 
C 48.647031 246.108524 47.734532 243.905557 46.110501 242.281526 
C 44.486471 240.657495 42.283503 239.744996 39.986777 239.744996 
C 37.690051 239.744996 35.487083 240.657495 33.863053 242.281526 
C 32.239022 243.905557 31.326523 246.108524 31.326523 248.40525 
C 31.326523 250.701977 32.239022 252.904944 33.863053 254.528975 
C 35.487083 256.153005 37.690051 257.065504 39.986777 257.065504 
z
" clip-path="url(#p9c7e32ac4e)" style="fill: #ffff00; stroke: #000000"/>
    <path d="M 39.986777 240.264338 
C 42.283503 240.264338 44.486471 239.351839 46.110501 237.727808 
C 47.734532 236.103777 48.647031 233.90081 48.647031 231.604084 
C 48.647031 229.307357 47.734532 227.10439 46.110501 225.480359 
C 44.486471 223.856329 42.283503 222.94383 39.986777 222.94383 
C 37.690051 222.94383 35.487083 223.856329 33.863053 225.480359 
C 32.239022 227.10439 31.326523 229.307357 31.326523 231.604084 
C 31.326523 233.90081 32.239022 236.103777 33.863053 237.727808 
C 35.487083 239.351839 37.690051 240.264338 39.986777 240.264338 
z
" clip-path="url(#p9c7e32ac4e)" style="fill: #ffff00; stroke: #000000"/>
    <path d="M 39.986777 223.463171 
C 42.283503 223.463171 44.486471 222.550672 46.110501 220.926641 
C 47.734532 219.302611 48.647031 217.099643 48.647031 214.802917 
C 48.647031 212.506191 47.734532 210.303223 46.110501 208.679193 
C 44.486471 207.055162 42.283503 206.142663 39.986777 206.142663 
C 37.690051 206.142663 35.487083 207.055162 33.863053 208.679193 
C 32.239022 210.303223 31.326523 212.506191 31.326523 214.802917 
C 31.326523 217.099643 32.239022 219.302611 33.863053 220.926641 
C 35.487083 222.550672 37.690051 223.463171 39.986777 223.463171 
z
" clip-path="url(#p9c7e32ac4e)" style="fill: #ffff00; stroke: #000000"/>
    <path d="M 39.986777 206.662004 
C 42.283503 206.662004 44.486471 205.749505 46.110501 204.125474 
C 47.734532 202.501444 48.647031 200.298476 48.647031 198.00175 
C 48.647031 195.705024 47.734532 193.502056 46.110501 191.878026 
C 44.486471 190.253995 42.283503 189.341496 39.986777 189.341496 
C 37.690051 189.341496 35.487083 190.253995 33.863053 191.878026 
C 32.239022 193.502056 31.326523 195.705024 31.326523 198.00175 
C 31.326523 200.298476 32.239022 202.501444 33.863053 204.125474 
C 35.487083 205.749505 37.690051 206.662004 39.986777 206.662004 
z
" clip-path="url(#p9c7e32ac4e)" style="fill: #ffff00; stroke: #000000"/>
    <path d="M 39.986777 189.860837 
C 42.283503 189.860837 44.486471 188.948338 46.110501 187.324308 
C 47.734532 185.700277 48.647031 183.49731 48.647031 181.200583 
C 48.647031 178.903857 47.734532 176.70089 46.110501 175.076859 
C 44.486471 173.452828 42.283503 172.540329 39.986777 172.540329 
C 37.690051 172.540329 35.487083 173.452828 33.863053 175.076859 
C 32.239022 176.70089 31.326523 178.903857 31.326523 181.200583 
C 31.326523 183.49731 32.239022 185.700277 33.863053 187.324308 
C 35.487083 188.948338 37.690051 189.860837 39.986777 189.860837 
z
" clip-path="url(#p9c7e32ac4e)" style="fill: #ffff00; stroke: #000000"/>
    <path d="M 39.986777 173.059671 
C 42.283503 173.059671 44.486471 172.147172 46.110501 170.523141 
C 47.734532 168.89911 48.647031 166.696143 48.647031 164.399417 
C 48.647031 162.10269 47.734532 159.899723 46.110501 158.275692 
C 44.486471 156.651662 42.283503 155.739163 39.986777 155.739163 
C 37.690051 155.739163 35.487083 156.651662 33.863053 158.275692 
C 32.239022 159.899723 31.326523 162.10269 31.326523 164.399417 
C 31.326523 166.696143 32.239022 168.89911 33.863053 170.523141 
C 35.487083 172.147172 37.690051 173.059671 39.986777 173.059671 
z
" clip-path="url(#p9c7e32ac4e)" style="fill: #ffff00; stroke: #000000"/>
    <path d="M 39.986777 156.258504 
C 42.283503 156.258504 44.486471 155.346005 46.110501 153.721974 
C 47.734532 152.097944 48.647031 149.894976 48.647031 147.59825 
C 48.647031 145.301524 47.734532 143.098556 46.110501 141.474526 
C 44.486471 139.850495 42.283503 138.937996 39.986777 138.937996 
C 37.690051 138.937996 35.487083 139.850495 33.863053 141.474526 
C 32.239022 143.098556 31.326523 145.301524 31.326523 147.59825 
C 31.326523 149.894976 32.239022 152.097944 33.863053 153.721974 
C 35.487083 155.346005 37.690051 156.258504 39.986777 156.258504 
z
" clip-path="url(#p9c7e32ac4e)" style="fill: #ffff00; stroke: #000000"/>
    <path d="M 39.986777 139.457337 
C 42.283503 139.457337 44.486471 138.544838 46.110501 136.920807 
C 47.734532 135.296777 48.647031 133.093809 48.647031 130.797083 
C 48.647031 128.500357 47.734532 126.297389 46.110501 124.673359 
C 44.486471 123.049328 42.283503 122.136829 39.986777 122.136829 
C 37.690051 122.136829 35.487083 123.049328 33.863053 124.673359 
C 32.239022 126.297389 31.326523 128.500357 31.326523 130.797083 
C 31.326523 133.093809 32.239022 135.296777 33.863053 136.920807 
C 35.487083 138.544838 37.690051 139.457337 39.986777 139.457337 
z
" clip-path="url(#p9c7e32ac4e)" style="fill: #ffff00; stroke: #000000"/>
    <path d="M 39.986777 122.65617 
C 42.283503 122.65617 44.486471 121.743671 46.110501 120.119641 
C 47.734532 118.49561 48.647031 116.292643 48.647031 113.995916 
C 48.647031 111.69919 47.734532 109.496223 46.110501 107.872192 
C 44.486471 106.248161 42.283503 105.335662 39.986777 105.335662 
C 37.690051 105.335662 35.487083 106.248161 33.863053 107.872192 
C 32.239022 109.496223 31.326523 111.69919 31.326523 113.995916 
C 31.326523 116.292643 32.239022 118.49561 33.863053 120.119641 
C 35.487083 121.743671 37.690051 122.65617 39.986777 122.65617 
z
" clip-path="url(#p9c7e32ac4e)" style="fill: #ffff00; stroke: #000000"/>
    <path d="M 39.986777 105.855004 
C 42.283503 105.855004 44.486471 104.942505 46.110501 103.318474 
C 47.734532 101.694443 48.647031 99.491476 48.647031 97.19475 
C 48.647031 94.898023 47.734532 92.695056 46.110501 91.071025 
C 44.486471 89.446995 42.283503 88.534496 39.986777 88.534496 
C 37.690051 88.534496 35.487083 89.446995 33.863053 91.071025 
C 32.239022 92.695056 31.326523 94.898023 31.326523 97.19475 
C 31.326523 99.491476 32.239022 101.694443 33.863053 103.318474 
C 35.487083 104.942505 37.690051 105.855004 39.986777 105.855004 
z
" clip-path="url(#p9c7e32ac4e)" style="fill: #ffff00; stroke: #000000"/>
    <path d="M 39.986777 89.053837 
C 42.283503 89.053837 44.486471 88.141338 46.110501 86.517307 
C 47.734532 84.893277 48.647031 82.690309 48.647031 80.393583 
C 48.647031 78.096857 47.734532 75.893889 46.110501 74.269859 
C 44.486471 72.645828 42.283503 71.733329 39.986777 71.733329 
C 37.690051 71.733329 35.487083 72.645828 33.863053 74.269859 
C 32.239022 75.893889 31.326523 78.096857 31.326523 80.393583 
C 31.326523 82.690309 32.239022 84.893277 33.863053 86.517307 
C 35.487083 88.141338 37.690051 89.053837 39.986777 89.053837 
z
" clip-path="url(#p9c7e32ac4e)" style="fill: #ffff00; stroke: #000000"/>
    <path d="M 39.986777 72.25267 
C 42.283503 72.25267 44.486471 71.340171 46.110501 69.71614 
C 47.734532 68.09211 48.647031 65.889142 48.647031 63.592416 
C 48.647031 61.29569 47.734532 59.092722 46.110501 57.468692 
C 44.486471 55.844661 42.283503 54.932162 39.986777 54.932162 
C 37.690051 54.932162 35.487083 55.844661 33.863053 57.468692 
C 32.239022 59.092722 31.326523 61.29569 31.326523 63.592416 
C 31.326523 65.889142 32.239022 68.09211 33.863053 69.71614 
C 35.487083 71.340171 37.690051 72.25267 39.986777 72.25267 
z
" clip-path="url(#p9c7e32ac4e)" style="fill: #ffff00; stroke: #000000"/>
    <path d="M 39.986777 55.451503 
C 42.283503 55.451503 44.486471 54.539004 46.110501 52.914974 
C 47.734532 51.290943 48.647031 49.087976 48.647031 46.791249 
C 48.647031 44.494523 47.734532 42.291556 46.110501 40.667525 
C 44.486471 39.043494 42.283503 38.130995 39.986777 38.130995 
C 37.690051 38.130995 35.487083 39.043494 33.863053 40.667525 
C 32.239022 42.291556 31.326523 44.494523 31.326523 46.791249 
C 31.326523 49.087976 32.239022 51.290943 33.863053 52.914974 
C 35.487083 54.539004 37.690051 55.451503 39.986777 55.451503 
z
" clip-path="url(#p9c7e32ac4e)" style="fill: #ffff00; stroke: #000000"/>
    <path d="M 39.986777 38.650337 
C 42.283503 38.650337 44.486471 37.737838 46.110501 36.113807 
C 47.734532 34.489776 48.647031 32.286809 48.647031 29.990083 
C 48.647031 27.693356 47.734532 25.490389 46.110501 23.866358 
C 44.486471 22.242328 42.283503 21.329829 39.986777 21.329829 
C 37.690051 21.329829 35.487083 22.242328 33.863053 23.866358 
C 32.239022 25.490389 31.326523 27.693356 31.326523 29.990083 
C 31.326523 32.286809 32.239022 34.489776 33.863053 36.113807 
C 35.487083 37.737838 37.690051 38.650337 39.986777 38.650337 
z
" clip-path="url(#p9c7e32ac4e)" style="fill: #ffffff; stroke: #000000"/>
    <path d="M 135.193388 206.662004 
C 137.490115 206.662004 139.693082 205.749505 141.317113 204.125474 
C 142.941143 202.501444 143.853642 200.298476 143.853642 198.00175 
C 143.853642 195.705024 142.941143 193.502056 141.317113 191.878026 
C 139.693082 190.253995 137.490115 189.341496 135.193388 189.341496 
C 132.896662 189.341496 130.693695 190.253995 129.069664 191.878026 
C 127.445633 193.502056 126.533134 195.705024 126.533134 198.00175 
C 126.533134 200.298476 127.445633 202.501444 129.069664 204.125474 
C 130.693695 205.749505 132.896662 206.662004 135.193388 206.662004 
z
" clip-path="url(#p9c7e32ac4e)" style="fill: #ffffff; stroke: #000000"/>
    <path d="M 135.193388 189.860837 
C 137.490115 189.860837 139.693082 188.948338 141.317113 187.324308 
C 142.941143 185.700277 143.853642 183.49731 143.853642 181.200583 
C 143.853642 178.903857 142.941143 176.70089 141.317113 175.076859 
C 139.693082 173.452828 137.490115 172.540329 135.193388 172.540329 
C 132.896662 172.540329 130.693695 173.452828 129.069664 175.076859 
C 127.445633 176.70089 126.533134 178.903857 126.533134 181.200583 
C 126.533134 183.49731 127.445633 185.700277 129.069664 187.324308 
C 130.693695 188.948338 132.896662 189.860837 135.193388 189.860837 
z
" clip-path="url(#p9c7e32ac4e)" style="fill: #ffffff; stroke: #000000"/>
    <path d="M 135.193388 173.059671 
C 137.490115 173.059671 139.693082 172.147172 141.317113 170.523141 
C 142.941143 168.89911 143.853642 166.696143 143.853642 164.399417 
C 143.853642 162.10269 142.941143 159.899723 141.317113 158.275692 
C 139.693082 156.651662 137.490115 155.739163 135.193388 155.739163 
C 132.896662 155.739163 130.693695 156.651662 129.069664 158.275692 
C 127.445633 159.899723 126.533134 162.10269 126.533134 164.399417 
C 126.533134 166.696143 127.445633 168.89911 129.069664 170.523141 
C 130.693695 172.147172 132.896662 173.059671 135.193388 173.059671 
z
" clip-path="url(#p9c7e32ac4e)" style="fill: #ffffff; stroke: #000000"/>
    <path d="M 135.193388 156.258504 
C 137.490115 156.258504 139.693082 155.346005 141.317113 153.721974 
C 142.941143 152.097944 143.853642 149.894976 143.853642 147.59825 
C 143.853642 145.301524 142.941143 143.098556 141.317113 141.474526 
C 139.693082 139.850495 137.490115 138.937996 135.193388 138.937996 
C 132.896662 138.937996 130.693695 139.850495 129.069664 141.474526 
C 127.445633 143.098556 126.533134 145.301524 126.533134 147.59825 
C 126.533134 149.894976 127.445633 152.097944 129.069664 153.721974 
C 130.693695 155.346005 132.896662 156.258504 135.193388 156.258504 
z
" clip-path="url(#p9c7e32ac4e)" style="fill: #ffffff; stroke: #000000"/>
    <path d="M 230.4 215.062588 
C 232.696726 215.062588 234.899694 214.150089 236.523724 212.526058 
C 238.147755 210.902027 239.060254 208.69906 239.060254 206.402333 
C 239.060254 204.105607 238.147755 201.90264 236.523724 200.278609 
C 234.899694 198.654578 232.696726 197.742079 230.4 197.742079 
C 228.103274 197.742079 225.900306 198.654578 224.276276 200.278609 
C 222.652245 201.90264 221.739746 204.105607 221.739746 206.402333 
C 221.739746 208.69906 222.652245 210.902027 224.276276 212.526058 
C 225.900306 214.150089 228.103274 215.062588 230.4 215.062588 
z
" clip-path="url(#p9c7e32ac4e)" style="fill: #0000ff; stroke: #000000"/>
    <path d="M 230.4 198.261421 
C 232.696726 198.261421 234.899694 197.348922 236.523724 195.724891 
C 238.147755 194.10086 239.060254 191.897893 239.060254 189.601167 
C 239.060254 187.304441 238.147755 185.101473 236.523724 183.477442 
C 234.899694 181.853412 232.696726 180.940913 230.4 180.940913 
C 228.103274 180.940913 225.900306 181.853412 224.276276 183.477442 
C 222.652245 185.101473 221.739746 187.304441 221.739746 189.601167 
C 221.739746 191.897893 222.652245 194.10086 224.276276 195.724891 
C 225.900306 197.348922 228.103274 198.261421 230.4 198.261421 
z
" clip-path="url(#p9c7e32ac4e)" style="fill: #0000ff; stroke: #000000"/>
    <path d="M 230.4 181.460254 
C 232.696726 181.460254 234.899694 180.547755 236.523724 178.923724 
C 238.147755 177.299694 239.060254 175.096726 239.060254 172.8 
C 239.060254 170.503274 238.147755 168.300306 236.523724 166.676276 
C 234.899694 165.052245 232.696726 164.139746 230.4 164.139746 
C 228.103274 164.139746 225.900306 165.052245 224.276276 166.676276 
C 222.652245 168.300306 221.739746 170.503274 221.739746 172.8 
C 221.739746 175.096726 222.652245 177.299694 224.276276 178.923724 
C 225.900306 180.547755 228.103274 181.460254 230.4 181.460254 
z
" clip-path="url(#p9c7e32ac4e)" style="fill: #0000ff; stroke: #000000"/>
    <path d="M 230.4 164.659087 
C 232.696726 164.659087 234.899694 163.746588 236.523724 162.122558 
C 238.147755 160.498527 239.060254 158.295559 239.060254 155.998833 
C 239.060254 153.702107 238.147755 151.49914 236.523724 149.875109 
C 234.899694 148.251078 232.696726 147.338579 230.4 147.338579 
C 228.103274 147.338579 225.900306 148.251078 224.276276 149.875109 
C 222.652245 151.49914 221.739746 153.702107 221.739746 155.998833 
C 221.739746 158.295559 222.652245 160.498527 224.276276 162.122558 
C 225.900306 163.746588 228.103274 164.659087 230.4 164.659087 
z
" clip-path="url(#p9c7e32ac4e)" style="fill: #ffffff; stroke: #000000"/>
    <path d="M 230.4 147.857921 
C 232.696726 147.857921 234.899694 146.945422 236.523724 145.321391 
C 238.147755 143.69736 239.060254 141.494393 239.060254 139.197667 
C 239.060254 136.90094 238.147755 134.697973 236.523724 133.073942 
C 234.899694 131.449911 232.696726 130.537412 230.4 130.537412 
C 228.103274 130.537412 225.900306 131.449911 224.276276 133.073942 
C 222.652245 134.697973 221.739746 136.90094 221.739746 139.197667 
C 221.739746 141.494393 222.652245 143.69736 224.276276 145.321391 
C 225.900306 146.945422 228.103274 147.857921 230.4 147.857921 
z
" clip-path="url(#p9c7e32ac4e)" style="fill: #ffffff; stroke: #000000"/>
    <path d="M 325.606612 189.860837 
C 327.903338 189.860837 330.106305 188.948338 331.730336 187.324308 
C 333.354367 185.700277 334.266866 183.49731 334.266866 181.200583 
C 334.266866 178.903857 333.354367 176.70089 331.730336 175.076859 
C 330.106305 173.452828 327.903338 172.540329 325.606612 172.540329 
C 323.309885 172.540329 321.106918 173.452828 319.482887 175.076859 
C 317.858857 176.70089 316.946358 178.903857 316.946358 181.200583 
C 316.946358 183.49731 317.858857 185.700277 319.482887 187.324308 
C 321.106918 188.948338 323.309885 189.860837 325.606612 189.860837 
z
" clip-path="url(#p9c7e32ac4e)" style="fill: #0000ff; stroke: #000000"/>
    <path d="M 325.606612 173.059671 
C 327.903338 173.059671 330.106305 172.147172 331.730336 170.523141 
C 333.354367 168.89911 334.266866 166.696143 334.266866 164.399417 
C 334.266866 162.10269 333.354367 159.899723 331.730336 158.275692 
C 330.106305 156.651662 327.903338 155.739163 325.606612 155.739163 
C 323.309885 155.739163 321.106918 156.651662 319.482887 158.275692 
C 317.858857 159.899723 316.946358 162.10269 316.946358 164.399417 
C 316.946358 166.696143 317.858857 168.89911 319.482887 170.523141 
C 321.106918 172.147172 323.309885 173.059671 325.606612 173.059671 
z
" clip-path="url(#p9c7e32ac4e)" style="fill: #0000ff; stroke: #000000"/>
    <path d="M 420.813223 181.460254 
C 423.109949 181.460254 425.312917 180.547755 426.936947 178.923724 
C 428.560978 177.299694 429.473477 175.096726 429.473477 172.8 
C 429.473477 170.503274 428.560978 168.300306 426.936947 166.676276 
C 425.312917 165.052245 423.109949 164.139746 420.813223 164.139746 
C 418.516497 164.139746 416.313529 165.052245 414.689499 166.676276 
C 413.065468 168.300306 412.152969 170.503274 412.152969 172.8 
C 412.152969 175.096726 413.065468 177.299694 414.689499 178.923724 
C 416.313529 180.547755 418.516497 181.460254 420.813223 181.460254 
z
" clip-path="url(#p9c7e32ac4e)" style="fill: #0000ff; stroke: #000000"/>
   </g>
  </g>
 </g>
 <defs>
  <clipPath id="p9c7e32ac4e">
   <rect x="0" y="0" width="460.8" height="345.6"/>
  </clipPath>
 </defs>
</svg>
