<?xml version="1.0" encoding="utf-8" standalone="no"?>
<!DOCTYPE svg PUBLIC "-//W3C//DTD SVG 1.1//EN"
  "http://www.w3.org/Graphics/SVG/1.1/DTD/svg11.dtd">
<svg xmlns:xlink="http://www.w3.org/1999/xlink" width="460.8pt" height="345.6pt" viewBox="0 0 460.8 345.6" xmlns="http://www.w3.org/2000/svg" version="1.1">
 <metadata>
  <rdf:RDF xmlns:dc="http://purl.org/dc/elements/1.1/" xmlns:cc="http://creativecommons.org/ns#" xmlns:rdf="http://www.w3.org/1999/02/22-rdf-syntax-ns#">
   <cc:Work>
    <dc:type rdf:resource="http://purl.org/dc/dcmitype/StillImage"/>
    <dc:date>2024-07-15T19:39:34.749207</dc:date>
    <dc:format>image/svg+xml</dc:format>
    <dc:creator>
     <cc:Agent>
      <dc:title>Matplotlib v3.9.0, https://matplotlib.org/</dc:title>
     </cc:Agent>
    </dc:creator>
   </cc:Work>
  </rdf:RDF>
 </metadata>
 <defs>
  <style type="text/css">*{stroke-linejoin: round; stroke-linecap: butt}</style>
 </defs>
 <g id="figure_1">
  <g id="patch_1">
   <path d="M 0 345.6 
L 460.8 345.6 
L 460.8 0 
L 0 0 
z
" style="fill: #ffffff"/>
  </g>
  <g id="axes_1">
   <g id="patch_2">
    <path d="M 47.804926 314.085855 
Q 198.663939 242.282767 348.513434 170.960171 
" clip-path="url(#pf50cda3298)" style="fill: none; stroke: #4c4c4c; stroke-linecap: round"/>
    <path d="M 347.172046 170.934124 
L 348.513434 170.960171 
L 347.687764 172.017653 
" clip-path="url(#pf50cda3298)" style="fill: none; stroke: #4c4c4c; stroke-linecap: round"/>
   </g>
   <g id="patch_3">
    <path d="M 48.241232 284.978001 
Q 230.398498 227.178099 411.490092 169.716343 
" clip-path="url(#pf50cda3298)" style="fill: none; stroke: #4c4c4c; stroke-linecap: round"/>
    <path d="M 410.164825 169.50738 
L 411.490092 169.716343 
L 410.527761 170.651179 
" clip-path="url(#pf50cda3298)" style="fill: none; stroke: #4c4c4c; stroke-linecap: round"/>
   </g>
   <g id="patch_4">
    <path d="M 44.013765 279.930436 
Q 71.723076 227.176172 98.912491 175.411709 
" clip-path="url(#pf50cda3298)" style="fill: none; stroke: #4c4c4c; stroke-linecap: round"/>
    <path d="M 97.823296 176.195071 
L 98.912491 175.411709 
L 98.885663 176.753082 
" clip-path="url(#pf50cda3298)" style="fill: none; stroke: #4c4c4c; stroke-linecap: round"/>
   </g>
   <g id="patch_5">
    <path d="M 43.342601 279.610987 
Q 71.72251 212.072261 99.669303 145.564267 
" clip-path="url(#pf50cda3298)" style="fill: none; stroke: #4c4c4c; stroke-linecap: round"/>
    <path d="M 98.651285 146.438132 
L 99.669303 145.564267 
L 99.757584 146.903001 
" clip-path="url(#pf50cda3298)" style="fill: none; stroke: #4c4c4c; stroke-linecap: round"/>
   </g>
   <g id="patch_6">
    <path d="M 48.141477 254.47642 
Q 166.928655 212.072824 284.662877 170.045103 
" clip-path="url(#pf50cda3298)" style="fill: none; stroke: #4c4c4c; stroke-linecap: round"/>
    <path d="M 283.331009 169.883459 
L 284.662877 170.045103 
L 283.734441 171.01361 
" clip-path="url(#pf50cda3298)" style="fill: none; stroke: #4c4c4c; stroke-linecap: round"/>
   </g>
   <g id="patch_7">
    <path d="M 48.241232 224.55842 
Q 135.194415 196.967506 221.081926 169.714738 
" clip-path="url(#pf50cda3298)" style="fill: none; stroke: #4c4c4c; stroke-linecap: round"/>
    <path d="M 219.756659 169.505775 
L 221.081926 169.714738 
L 220.119595 170.649575 
" clip-path="url(#pf50cda3298)" style="fill: none; stroke: #4c4c4c; stroke-linecap: round"/>
   </g>
   <g id="patch_8">
    <path d="M 48.412655 225.172425 
Q 166.930164 196.967537 284.360015 169.021491 
" clip-path="url(#pf50cda3298)" style="fill: none; stroke: #4c4c4c; stroke-linecap: round"/>
    <path d="M 283.053709 168.715611 
L 284.360015 169.021491 
L 283.331527 169.883008 
" clip-path="url(#pf50cda3298)" style="fill: none; stroke: #4c4c4c; stroke-linecap: round"/>
   </g>
   <g id="patch_9">
    <path d="M 48.58311 195.944951 
Q 166.928489 181.862989 284.163667 167.91313 
" clip-path="url(#pf50cda3298)" style="fill: none; stroke: #4c4c4c; stroke-linecap: round"/>
    <path d="M 282.901179 167.459121 
L 284.163667 167.91313 
L 283.042967 168.650715 
" clip-path="url(#pf50cda3298)" style="fill: none; stroke: #4c4c4c; stroke-linecap: round"/>
   </g>
   <g id="patch_10">
    <path d="M 48.618944 196.283069 
Q 230.398446 181.86306 411.063415 167.531464 
" clip-path="url(#pf50cda3298)" style="fill: none; stroke: #4c4c4c; stroke-linecap: round"/>
    <path d="M 409.819726 167.028237 
L 411.063415 167.531464 
L 409.91462 168.224479 
" clip-path="url(#pf50cda3298)" style="fill: none; stroke: #4c4c4c; stroke-linecap: round"/>
   </g>
   <g id="patch_11">
    <path d="M 48.649935 166.758042 
Q 198.664949 166.758042 347.561929 166.758042 
" clip-path="url(#pf50cda3298)" style="fill: none; stroke: #4c4c4c; stroke-linecap: round"/>
    <path d="M 346.361929 166.158042 
L 347.561929 166.758042 
L 346.361929 167.358042 
" clip-path="url(#pf50cda3298)" style="fill: none; stroke: #4c4c4c; stroke-linecap: round"/>
   </g>
   <g id="patch_12">
    <path d="M 48.645093 136.548252 
Q 71.720716 136.548252 93.678304 136.548252 
" clip-path="url(#pf50cda3298)" style="fill: none; stroke: #4c4c4c; stroke-linecap: round"/>
    <path d="M 92.478304 135.948252 
L 93.678304 136.548252 
L 92.478304 137.148252 
" clip-path="url(#pf50cda3298)" style="fill: none; stroke: #4c4c4c; stroke-linecap: round"/>
   </g>
   <g id="patch_13">
    <path d="M 48.412655 108.343658 
Q 166.930164 136.548547 284.360015 164.494593 
" clip-path="url(#pf50cda3298)" style="fill: none; stroke: #4c4c4c; stroke-linecap: round"/>
    <path d="M 283.331527 163.633076 
L 284.360015 164.494593 
L 283.053709 164.800473 
" clip-path="url(#pf50cda3298)" style="fill: none; stroke: #4c4c4c; stroke-linecap: round"/>
   </g>
   <g id="patch_14">
    <path d="M 44.955139 113.43271 
Q 71.722165 151.652935 97.847834 188.957375 
" clip-path="url(#pf50cda3298)" style="fill: none; stroke: #4c4c4c; stroke-linecap: round"/>
    <path d="M 97.650919 187.630264 
L 97.847834 188.957375 
L 96.667996 188.318641 
" clip-path="url(#pf50cda3298)" style="fill: none; stroke: #4c4c4c; stroke-linecap: round"/>
   </g>
   <g id="patch_15">
    <path d="M 46.260666 82.100931 
Q 71.72256 106.338696 96.374658 129.805597 
" clip-path="url(#pf50cda3298)" style="fill: none; stroke: #4c4c4c; stroke-linecap: round"/>
    <path d="M 95.919182 128.543637 
L 96.374658 129.805597 
L 95.091805 129.412801 
" clip-path="url(#pf50cda3298)" style="fill: none; stroke: #4c4c4c; stroke-linecap: round"/>
   </g>
   <g id="patch_16">
    <path d="M 112.054184 195.944951 
Q 230.399564 181.862989 347.634741 167.91313 
" clip-path="url(#pf50cda3298)" style="fill: none; stroke: #4c4c4c; stroke-linecap: round"/>
    <path d="M 346.372253 167.459121 
L 347.634741 167.91313 
L 346.514041 168.650715 
" clip-path="url(#pf50cda3298)" style="fill: none; stroke: #4c4c4c; stroke-linecap: round"/>
   </g>
   <g id="patch_17">
    <path d="M 111.27939 193.24508 
Q 135.192998 181.863123 158.097088 170.961657 
" clip-path="url(#pf50cda3298)" style="fill: none; stroke: #4c4c4c; stroke-linecap: round"/>
    <path d="M 156.7557 170.935611 
L 158.097088 170.961657 
L 157.271418 172.01914 
" clip-path="url(#pf50cda3298)" style="fill: none; stroke: #4c4c4c; stroke-linecap: round"/>
   </g>
   <g id="patch_18">
    <path d="M 175.587242 166.758042 
Q 198.662864 166.758042 220.620453 166.758042 
" clip-path="url(#pf50cda3298)" style="fill: none; stroke: #4c4c4c; stroke-linecap: round"/>
    <path d="M 219.420453 166.158042 
L 220.620453 166.758042 
L 219.420453 167.358042 
" clip-path="url(#pf50cda3298)" style="fill: none; stroke: #4c4c4c; stroke-linecap: round"/>
   </g>
   <g id="patch_19">
    <path d="M 239.058316 166.758042 
Q 262.133939 166.758042 284.091527 166.758042 
" clip-path="url(#pf50cda3298)" style="fill: none; stroke: #4c4c4c; stroke-linecap: round"/>
    <path d="M 282.891527 166.158042 
L 284.091527 166.758042 
L 282.891527 167.358042 
" clip-path="url(#pf50cda3298)" style="fill: none; stroke: #4c4c4c; stroke-linecap: round"/>
   </g>
   <g id="patch_20">
    <path d="M 302.52939 166.758042 
Q 357.341428 166.758042 411.035432 166.758042 
" clip-path="url(#pf50cda3298)" style="fill: none; stroke: #4c4c4c; stroke-linecap: round"/>
    <path d="M 409.835432 166.158042 
L 411.035432 166.758042 
L 409.835432 167.358042 
" clip-path="url(#pf50cda3298)" style="fill: none; stroke: #4c4c4c; stroke-linecap: round"/>
   </g>
   <g id="patch_21">
    <path d="M 302.52939 166.758042 
Q 325.605013 166.758042 347.562602 166.758042 
" clip-path="url(#pf50cda3298)" style="fill: none; stroke: #4c4c4c; stroke-linecap: round"/>
    <path d="M 346.362602 166.158042 
L 347.562602 166.758042 
L 346.362602 167.358042 
" clip-path="url(#pf50cda3298)" style="fill: none; stroke: #4c4c4c; stroke-linecap: round"/>
   </g>
   <g id="patch_22">
    <path d="M 366.000465 166.758042 
Q 389.076087 166.758042 411.033676 166.758042 
" clip-path="url(#pf50cda3298)" style="fill: none; stroke: #4c4c4c; stroke-linecap: round"/>
    <path d="M 409.833676 166.158042 
L 411.033676 166.758042 
L 409.833676 167.358042 
" clip-path="url(#pf50cda3298)" style="fill: none; stroke: #4c4c4c; stroke-linecap: round"/>
   </g>
   <g id="PathCollection_1">
    <path d="M 39.986777 326.467247 
C 42.283503 326.467247 44.486471 325.554748 46.110501 323.930717 
C 47.734532 322.306687 48.647031 320.103719 48.647031 317.806993 
C 48.647031 315.510267 47.734532 313.307299 46.110501 311.683269 
C 44.486471 310.059238 42.283503 309.146739 39.986777 309.146739 
C 37.690051 309.146739 35.487083 310.059238 33.863053 311.683269 
C 32.239022 313.307299 31.326523 315.510267 31.326523 317.806993 
C 31.326523 320.103719 32.239022 322.306687 33.863053 323.930717 
C 35.487083 325.554748 37.690051 326.467247 39.986777 326.467247 
z
" clip-path="url(#pf50cda3298)" style="fill: #ffff00; stroke: #000000"/>
    <path d="M 39.986777 296.257457 
C 42.283503 296.257457 44.486471 295.344958 46.110501 293.720927 
C 47.734532 292.096896 48.647031 289.893929 48.647031 287.597203 
C 48.647031 285.300477 47.734532 283.097509 46.110501 281.473478 
C 44.486471 279.849448 42.283503 278.936949 39.986777 278.936949 
C 37.690051 278.936949 35.487083 279.849448 33.863053 281.473478 
C 32.239022 283.097509 31.326523 285.300477 31.326523 287.597203 
C 31.326523 289.893929 32.239022 292.096896 33.863053 293.720927 
C 35.487083 295.344958 37.690051 296.257457 39.986777 296.257457 
z
" clip-path="url(#pf50cda3298)" style="fill: #ffff00; stroke: #000000"/>
    <path d="M 39.986777 266.047667 
C 42.283503 266.047667 44.486471 265.135168 46.110501 263.511137 
C 47.734532 261.887106 48.647031 259.684139 48.647031 257.387413 
C 48.647031 255.090686 47.734532 252.887719 46.110501 251.263688 
C 44.486471 249.639658 42.283503 248.727159 39.986777 248.727159 
C 37.690051 248.727159 35.487083 249.639658 33.863053 251.263688 
C 32.239022 252.887719 31.326523 255.090686 31.326523 257.387413 
C 31.326523 259.684139 32.239022 261.887106 33.863053 263.511137 
C 35.487083 265.135168 37.690051 266.047667 39.986777 266.047667 
z
" clip-path="url(#pf50cda3298)" style="fill: #ffff00; stroke: #000000"/>
    <path d="M 39.986777 235.837876 
C 42.283503 235.837876 44.486471 234.925377 46.110501 233.301347 
C 47.734532 231.677316 48.647031 229.474349 48.647031 227.177622 
C 48.647031 224.880896 47.734532 222.677929 46.110501 221.053898 
C 44.486471 219.429867 42.283503 218.517368 39.986777 218.517368 
C 37.690051 218.517368 35.487083 219.429867 33.863053 221.053898 
C 32.239022 222.677929 31.326523 224.880896 31.326523 227.177622 
C 31.326523 229.474349 32.239022 231.677316 33.863053 233.301347 
C 35.487083 234.925377 37.690051 235.837876 39.986777 235.837876 
z
" clip-path="url(#pf50cda3298)" style="fill: #ffff00; stroke: #000000"/>
    <path d="M 39.986777 205.628086 
C 42.283503 205.628086 44.486471 204.715587 46.110501 203.091557 
C 47.734532 201.467526 48.647031 199.264558 48.647031 196.967832 
C 48.647031 194.671106 47.734532 192.468138 46.110501 190.844108 
C 44.486471 189.220077 42.283503 188.307578 39.986777 188.307578 
C 37.690051 188.307578 35.487083 189.220077 33.863053 190.844108 
C 32.239022 192.468138 31.326523 194.671106 31.326523 196.967832 
C 31.326523 199.264558 32.239022 201.467526 33.863053 203.091557 
C 35.487083 204.715587 37.690051 205.628086 39.986777 205.628086 
z
" clip-path="url(#pf50cda3298)" style="fill: #ffff00; stroke: #000000"/>
    <path d="M 39.986777 175.418296 
C 42.283503 175.418296 44.486471 174.505797 46.110501 172.881766 
C 47.734532 171.257736 48.647031 169.054768 48.647031 166.758042 
C 48.647031 164.461316 47.734532 162.258348 46.110501 160.634318 
C 44.486471 159.010287 42.283503 158.097788 39.986777 158.097788 
C 37.690051 158.097788 35.487083 159.010287 33.863053 160.634318 
C 32.239022 162.258348 31.326523 164.461316 31.326523 166.758042 
C 31.326523 169.054768 32.239022 171.257736 33.863053 172.881766 
C 35.487083 174.505797 37.690051 175.418296 39.986777 175.418296 
z
" clip-path="url(#pf50cda3298)" style="fill: #ffff00; stroke: #000000"/>
    <path d="M 39.986777 145.208506 
C 42.283503 145.208506 44.486471 144.296007 46.110501 142.671976 
C 47.734532 141.047945 48.647031 138.844978 48.647031 136.548252 
C 48.647031 134.251526 47.734532 132.048558 46.110501 130.424527 
C 44.486471 128.800497 42.283503 127.887998 39.986777 127.887998 
C 37.690051 127.887998 35.487083 128.800497 33.863053 130.424527 
C 32.239022 132.048558 31.326523 134.251526 31.326523 136.548252 
C 31.326523 138.844978 32.239022 141.047945 33.863053 142.671976 
C 35.487083 144.296007 37.690051 145.208506 39.986777 145.208506 
z
" clip-path="url(#pf50cda3298)" style="fill: #ffff00; stroke: #000000"/>
    <path d="M 39.986777 114.998716 
C 42.283503 114.998716 44.486471 114.086217 46.110501 112.462186 
C 47.734532 110.838155 48.647031 108.635188 48.647031 106.338462 
C 48.647031 104.041735 47.734532 101.838768 46.110501 100.214737 
C 44.486471 98.590706 42.283503 97.678208 39.986777 97.678208 
C 37.690051 97.678208 35.487083 98.590706 33.863053 100.214737 
C 32.239022 101.838768 31.326523 104.041735 31.326523 106.338462 
C 31.326523 108.635188 32.239022 110.838155 33.863053 112.462186 
C 35.487083 114.086217 37.690051 114.998716 39.986777 114.998716 
z
" clip-path="url(#pf50cda3298)" style="fill: #ffff00; stroke: #000000"/>
    <path d="M 39.986777 84.788925 
C 42.283503 84.788925 44.486471 83.876426 46.110501 82.252396 
C 47.734532 80.628365 48.647031 78.425398 48.647031 76.128671 
C 48.647031 73.831945 47.734532 71.628978 46.110501 70.004947 
C 44.486471 68.380916 42.283503 67.468417 39.986777 67.468417 
C 37.690051 67.468417 35.487083 68.380916 33.863053 70.004947 
C 32.239022 71.628978 31.326523 73.831945 31.326523 76.128671 
C 31.326523 78.425398 32.239022 80.628365 33.863053 82.252396 
C 35.487083 83.876426 37.690051 84.788925 39.986777 84.788925 
z
" clip-path="url(#pf50cda3298)" style="fill: #ffff00; stroke: #000000"/>
    <path d="M 39.986777 54.579135 
C 42.283503 54.579135 44.486471 53.666636 46.110501 52.042605 
C 47.734532 50.418575 48.647031 48.215607 48.647031 45.918881 
C 48.647031 43.622155 47.734532 41.419187 46.110501 39.795157 
C 44.486471 38.171126 42.283503 37.258627 39.986777 37.258627 
C 37.690051 37.258627 35.487083 38.171126 33.863053 39.795157 
C 32.239022 41.419187 31.326523 43.622155 31.326523 45.918881 
C 31.326523 48.215607 32.239022 50.418575 33.863053 52.042605 
C 35.487083 53.666636 37.690051 54.579135 39.986777 54.579135 
z
" clip-path="url(#pf50cda3298)" style="fill: #ffff00; stroke: #000000"/>
    <path d="M 39.986777 24.369345 
C 42.283503 24.369345 44.486471 23.456846 46.110501 21.832815 
C 47.734532 20.208785 48.647031 18.005817 48.647031 15.709091 
C 48.647031 13.412365 47.734532 11.209397 46.110501 9.585367 
C 44.486471 7.961336 42.283503 7.048837 39.986777 7.048837 
C 37.690051 7.048837 35.487083 7.961336 33.863053 9.585367 
C 32.239022 11.209397 31.326523 13.412365 31.326523 15.709091 
C 31.326523 18.005817 32.239022 20.208785 33.863053 21.832815 
C 35.487083 23.456846 37.690051 24.369345 39.986777 24.369345 
z
" clip-path="url(#pf50cda3298)" style="fill: #ffff00; stroke: #000000"/>
    <path d="M 103.457851 145.208506 
C 105.754577 145.208506 107.957545 144.296007 109.581576 142.671976 
C 111.205606 141.047945 112.118105 138.844978 112.118105 136.548252 
C 112.118105 134.251526 111.205606 132.048558 109.581576 130.424527 
C 107.957545 128.800497 105.754577 127.887998 103.457851 127.887998 
C 101.161125 127.887998 98.958158 128.800497 97.334127 130.424527 
C 95.710096 132.048558 94.797597 134.251526 94.797597 136.548252 
C 94.797597 138.844978 95.710096 141.047945 97.334127 142.671976 
C 98.958158 144.296007 101.161125 145.208506 103.457851 145.208506 
z
" clip-path="url(#pf50cda3298)" style="fill: #0000ff; stroke: #000000"/>
    <path d="M 103.457851 205.628086 
C 105.754577 205.628086 107.957545 204.715587 109.581576 203.091557 
C 111.205606 201.467526 112.118105 199.264558 112.118105 196.967832 
C 112.118105 194.671106 111.205606 192.468138 109.581576 190.844108 
C 107.957545 189.220077 105.754577 188.307578 103.457851 188.307578 
C 101.161125 188.307578 98.958158 189.220077 97.334127 190.844108 
C 95.710096 192.468138 94.797597 194.671106 94.797597 196.967832 
C 94.797597 199.264558 95.710096 201.467526 97.334127 203.091557 
C 98.958158 204.715587 101.161125 205.628086 103.457851 205.628086 
z
" clip-path="url(#pf50cda3298)" style="fill: #ffffff; stroke: #000000"/>
    <path d="M 103.457851 175.418296 
C 105.754577 175.418296 107.957545 174.505797 109.581576 172.881766 
C 111.205606 171.257736 112.118105 169.054768 112.118105 166.758042 
C 112.118105 164.461316 111.205606 162.258348 109.581576 160.634318 
C 107.957545 159.010287 105.754577 158.097788 103.457851 158.097788 
C 101.161125 158.097788 98.958158 159.010287 97.334127 160.634318 
C 95.710096 162.258348 94.797597 164.461316 94.797597 166.758042 
C 94.797597 169.054768 95.710096 171.257736 97.334127 172.881766 
C 98.958158 174.505797 101.161125 175.418296 103.457851 175.418296 
z
" clip-path="url(#pf50cda3298)" style="fill: #ffffff; stroke: #000000"/>
    <path d="M 166.928926 175.418296 
C 169.225652 175.418296 171.428619 174.505797 173.05265 172.881766 
C 174.676681 171.257736 175.58918 169.054768 175.58918 166.758042 
C 175.58918 164.461316 174.676681 162.258348 173.05265 160.634318 
C 171.428619 159.010287 169.225652 158.097788 166.928926 158.097788 
C 164.632199 158.097788 162.429232 159.010287 160.805201 160.634318 
C 159.181171 162.258348 158.268672 164.461316 158.268672 166.758042 
C 158.268672 169.054768 159.181171 171.257736 160.805201 172.881766 
C 162.429232 174.505797 164.632199 175.418296 166.928926 175.418296 
z
" clip-path="url(#pf50cda3298)" style="fill: #ffffff; stroke: #000000"/>
    <path d="M 230.4 175.418296 
C 232.696726 175.418296 234.899694 174.505797 236.523724 172.881766 
C 238.147755 171.257736 239.060254 169.054768 239.060254 166.758042 
C 239.060254 164.461316 238.147755 162.258348 236.523724 160.634318 
C 234.899694 159.010287 232.696726 158.097788 230.4 158.097788 
C 228.103274 158.097788 225.900306 159.010287 224.276276 160.634318 
C 222.652245 162.258348 221.739746 164.461316 221.739746 166.758042 
C 221.739746 169.054768 222.652245 171.257736 224.276276 172.881766 
C 225.900306 174.505797 228.103274 175.418296 230.4 175.418296 
z
" clip-path="url(#pf50cda3298)" style="fill: #ffffff; stroke: #000000"/>
    <path d="M 293.871074 175.418296 
C 296.167801 175.418296 298.370768 174.505797 299.994799 172.881766 
C 301.618829 171.257736 302.531328 169.054768 302.531328 166.758042 
C 302.531328 164.461316 301.618829 162.258348 299.994799 160.634318 
C 298.370768 159.010287 296.167801 158.097788 293.871074 158.097788 
C 291.574348 158.097788 289.371381 159.010287 287.74735 160.634318 
C 286.123319 162.258348 285.21082 164.461316 285.21082 166.758042 
C 285.21082 169.054768 286.123319 171.257736 287.74735 172.881766 
C 289.371381 174.505797 291.574348 175.418296 293.871074 175.418296 
z
" clip-path="url(#pf50cda3298)" style="fill: #ffffff; stroke: #000000"/>
    <path d="M 357.342149 175.418296 
C 359.638875 175.418296 361.841842 174.505797 363.465873 172.881766 
C 365.089904 171.257736 366.002403 169.054768 366.002403 166.758042 
C 366.002403 164.461316 365.089904 162.258348 363.465873 160.634318 
C 361.841842 159.010287 359.638875 158.097788 357.342149 158.097788 
C 355.045423 158.097788 352.842455 159.010287 351.218424 160.634318 
C 349.594394 162.258348 348.681895 164.461316 348.681895 166.758042 
C 348.681895 169.054768 349.594394 171.257736 351.218424 172.881766 
C 352.842455 174.505797 355.045423 175.418296 357.342149 175.418296 
z
" clip-path="url(#pf50cda3298)" style="fill: #0000ff; stroke: #000000"/>
    <path d="M 420.813223 175.418296 
C 423.109949 175.418296 425.312917 174.505797 426.936947 172.881766 
C 428.560978 171.257736 429.473477 169.054768 429.473477 166.758042 
C 429.473477 164.461316 428.560978 162.258348 426.936947 160.634318 
C 425.312917 159.010287 423.109949 158.097788 420.813223 158.097788 
C 418.516497 158.097788 416.313529 159.010287 414.689499 160.634318 
C 413.065468 162.258348 412.152969 164.461316 412.152969 166.758042 
C 412.152969 169.054768 413.065468 171.257736 414.689499 172.881766 
C 416.313529 174.505797 418.516497 175.418296 420.813223 175.418296 
z
" clip-path="url(#pf50cda3298)" style="fill: #0000ff; stroke: #000000"/>
   </g>
  </g>
 </g>
 <defs>
  <clipPath id="pf50cda3298">
   <rect x="0" y="0" width="460.8" height="345.6"/>
  </clipPath>
 </defs>
</svg>
