<?xml version="1.0" encoding="utf-8" standalone="no"?>
<!DOCTYPE svg PUBLIC "-//W3C//DTD SVG 1.1//EN"
  "http://www.w3.org/Graphics/SVG/1.1/DTD/svg11.dtd">
<svg xmlns:xlink="http://www.w3.org/1999/xlink" width="460.8pt" height="345.6pt" viewBox="0 0 460.8 345.6" xmlns="http://www.w3.org/2000/svg" version="1.1">
 <metadata>
  <rdf:RDF xmlns:dc="http://purl.org/dc/elements/1.1/" xmlns:cc="http://creativecommons.org/ns#" xmlns:rdf="http://www.w3.org/1999/02/22-rdf-syntax-ns#">
   <cc:Work>
    <dc:type rdf:resource="http://purl.org/dc/dcmitype/StillImage"/>
    <dc:date>2024-07-15T20:07:34.485627</dc:date>
    <dc:format>image/svg+xml</dc:format>
    <dc:creator>
     <cc:Agent>
      <dc:title>Matplotlib v3.9.0, https://matplotlib.org/</dc:title>
     </cc:Agent>
    </dc:creator>
   </cc:Work>
  </rdf:RDF>
 </metadata>
 <defs>
  <style type="text/css">*{stroke-linejoin: round; stroke-linecap: butt}</style>
 </defs>
 <g id="figure_1">
  <g id="patch_1">
   <path d="M 0 345.6 
L 460.8 345.6 
L 460.8 0 
L 0 0 
z
" style="fill: #ffffff"/>
  </g>
  <g id="axes_1">
   <g id="patch_2">
    <path d="M 42.658984 307.5342 
Q 67.188776 231.929386 91.37353 157.388032 
" clip-path="url(#p46e46c26f6)" style="fill: none; stroke: #4c4c4c; stroke-linecap: round"/>
    <path d="M 90.432484 158.344292 
L 91.37353 157.388032 
L 91.57391 158.714625 
" clip-path="url(#p46e46c26f6)" style="fill: none; stroke: #4c4c4c; stroke-linecap: round"/>
   </g>
   <g id="patch_3">
    <path d="M 46.713367 292.663807 
Q 121.592568 231.929623 195.603451 171.899729 
" clip-path="url(#p46e46c26f6)" style="fill: none; stroke: #4c4c4c; stroke-linecap: round"/>
    <path d="M 194.293513 172.189663 
L 195.603451 171.899729 
L 195.049435 173.12164 
" clip-path="url(#p46e46c26f6)" style="fill: none; stroke: #4c4c4c; stroke-linecap: round"/>
   </g>
   <g id="patch_4">
    <path d="M 46.192872 274.428567 
Q 94.389069 227.518504 141.784079 181.388249 
" clip-path="url(#p46e46c26f6)" style="fill: none; stroke: #4c4c4c; stroke-linecap: round"/>
    <path d="M 140.505666 181.795264 
L 141.784079 181.388249 
L 141.342643 182.655188 
" clip-path="url(#p46e46c26f6)" style="fill: none; stroke: #4c4c4c; stroke-linecap: round"/>
   </g>
   <g id="patch_5">
    <path d="M 47.248805 240.455564 
Q 94.388081 209.868 140.589467 179.88901 
" clip-path="url(#p46e46c26f6)" style="fill: none; stroke: #4c4c4c; stroke-linecap: round"/>
    <path d="M 139.256223 180.038876 
L 140.589467 179.88901 
L 139.909414 181.045525 
" clip-path="url(#p46e46c26f6)" style="fill: none; stroke: #4c4c4c; stroke-linecap: round"/>
   </g>
   <g id="patch_6">
    <path d="M 48.536345 208.479491 
Q 121.593356 196.628248 193.54676 184.956032 
" clip-path="url(#p46e46c26f6)" style="fill: none; stroke: #4c4c4c; stroke-linecap: round"/>
    <path d="M 192.266169 184.555925 
L 193.54676 184.956032 
L 192.45832 185.740441 
" clip-path="url(#p46e46c26f6)" style="fill: none; stroke: #4c4c4c; stroke-linecap: round"/>
   </g>
   <g id="patch_7">
    <path d="M 48.537175 190.828692 
Q 94.393015 183.389999 139.145247 176.130332 
" clip-path="url(#p46e46c26f6)" style="fill: none; stroke: #4c4c4c; stroke-linecap: round"/>
    <path d="M 137.864655 175.730226 
L 139.145247 176.130332 
L 138.056806 176.914742 
" clip-path="url(#p46e46c26f6)" style="fill: none; stroke: #4c4c4c; stroke-linecap: round"/>
   </g>
   <g id="patch_8">
    <path d="M 48.225044 189.542922 
Q 94.38938 174.565448 139.490252 159.933002 
" clip-path="url(#p46e46c26f6)" style="fill: none; stroke: #4c4c4c; stroke-linecap: round"/>
    <path d="M 138.163661 159.73261 
L 139.490252 159.933002 
L 138.533984 160.87404 
" clip-path="url(#p46e46c26f6)" style="fill: none; stroke: #4c4c4c; stroke-linecap: round"/>
   </g>
   <g id="patch_9">
    <path d="M 48.638452 191.747908 
Q 121.595347 187.802907 193.435838 183.918274 
" clip-path="url(#p46e46c26f6)" style="fill: none; stroke: #4c4c4c; stroke-linecap: round"/>
    <path d="M 192.205192 183.383942 
L 193.435838 183.918274 
L 192.269985 184.582192 
" clip-path="url(#p46e46c26f6)" style="fill: none; stroke: #4c4c4c; stroke-linecap: round"/>
   </g>
   <g id="patch_10">
    <path d="M 48.650074 174.565066 
Q 94.393152 174.565066 139.018197 174.565066 
" clip-path="url(#p46e46c26f6)" style="fill: none; stroke: #4c4c4c; stroke-linecap: round"/>
    <path d="M 137.818197 173.965066 
L 139.018197 174.565066 
L 137.818197 175.165066 
" clip-path="url(#p46e46c26f6)" style="fill: none; stroke: #4c4c4c; stroke-linecap: round"/>
   </g>
   <g id="patch_11">
    <path d="M 48.536345 173.178163 
Q 121.593356 161.32692 193.54676 149.654704 
" clip-path="url(#p46e46c26f6)" style="fill: none; stroke: #4c4c4c; stroke-linecap: round"/>
    <path d="M 192.266169 149.254597 
L 193.54676 149.654704 
L 192.45832 150.439113 
" clip-path="url(#p46e46c26f6)" style="fill: none; stroke: #4c4c4c; stroke-linecap: round"/>
   </g>
   <g id="patch_12">
    <path d="M 47.77345 160.703844 
Q 67.188234 170.15219 85.59771 179.111296 
" clip-path="url(#p46e46c26f6)" style="fill: none; stroke: #4c4c4c; stroke-linecap: round"/>
    <path d="M 84.781254 178.046683 
L 85.59771 179.111296 
L 84.256146 179.125693 
" clip-path="url(#p46e46c26f6)" style="fill: none; stroke: #4c4c4c; stroke-linecap: round"/>
   </g>
   <g id="patch_13">
    <path d="M 48.225044 141.936547 
Q 94.38938 156.914021 139.490252 171.546467 
" clip-path="url(#p46e46c26f6)" style="fill: none; stroke: #4c4c4c; stroke-linecap: round"/>
    <path d="M 138.533984 170.605429 
L 139.490252 171.546467 
L 138.163661 171.746858 
" clip-path="url(#p46e46c26f6)" style="fill: none; stroke: #4c4c4c; stroke-linecap: round"/>
   </g>
   <g id="patch_14">
    <path d="M 46.710877 127.066962 
Q 67.188053 143.675907 86.796911 159.580564 
" clip-path="url(#p46e46c26f6)" style="fill: none; stroke: #4c4c4c; stroke-linecap: round"/>
    <path d="M 86.242895 158.358653 
L 86.796911 159.580564 
L 85.486973 159.29063 
" clip-path="url(#p46e46c26f6)" style="fill: none; stroke: #4c4c4c; stroke-linecap: round"/>
   </g>
   <g id="patch_15">
    <path d="M 47.248805 108.674569 
Q 94.388081 139.262133 140.589467 169.241123 
" clip-path="url(#p46e46c26f6)" style="fill: none; stroke: #4c4c4c; stroke-linecap: round"/>
    <path d="M 139.909414 168.084608 
L 140.589467 169.241123 
L 139.256223 169.091256 
" clip-path="url(#p46e46c26f6)" style="fill: none; stroke: #4c4c4c; stroke-linecap: round"/>
   </g>
   <g id="patch_16">
    <path d="M 47.774281 107.752256 
Q 121.593248 143.676796 194.406908 179.112095 
" clip-path="url(#p46e46c26f6)" style="fill: none; stroke: #4c4c4c; stroke-linecap: round"/>
    <path d="M 193.590452 178.047482 
L 194.406908 179.112095 
L 193.065344 179.126492 
" clip-path="url(#p46e46c26f6)" style="fill: none; stroke: #4c4c4c; stroke-linecap: round"/>
   </g>
   <g id="patch_17">
    <path d="M 46.710877 91.765634 
Q 94.389595 130.437628 141.199996 168.405334 
" clip-path="url(#p46e46c26f6)" style="fill: none; stroke: #4c4c4c; stroke-linecap: round"/>
    <path d="M 140.64598 167.183423 
L 141.199996 168.405334 
L 139.890058 168.1154 
" clip-path="url(#p46e46c26f6)" style="fill: none; stroke: #4c4c4c; stroke-linecap: round"/>
   </g>
   <g id="patch_18">
    <path d="M 48.088072 71.727514 
Q 121.592328 99.549701 194.050948 126.976103 
" clip-path="url(#p46e46c26f6)" style="fill: none; stroke: #4c4c4c; stroke-linecap: round"/>
    <path d="M 193.141055 125.990155 
L 194.050948 126.976103 
L 192.716254 127.112449 
" clip-path="url(#p46e46c26f6)" style="fill: none; stroke: #4c4c4c; stroke-linecap: round"/>
   </g>
   <g id="patch_19">
    <path d="M 47.248805 55.722577 
Q 148.793534 121.612556 249.400373 186.89396 
" clip-path="url(#p46e46c26f6)" style="fill: none; stroke: #4c4c4c; stroke-linecap: round"/>
    <path d="M 248.720319 185.737445 
L 249.400373 186.89396 
L 248.067129 186.744094 
" clip-path="url(#p46e46c26f6)" style="fill: none; stroke: #4c4c4c; stroke-linecap: round"/>
   </g>
   <g id="patch_20">
    <path d="M 47.774281 54.800264 
Q 121.593248 90.724804 194.406908 126.160103 
" clip-path="url(#p46e46c26f6)" style="fill: none; stroke: #4c4c4c; stroke-linecap: round"/>
    <path d="M 193.590452 125.095491 
L 194.406908 126.160103 
L 193.065344 126.1745 
" clip-path="url(#p46e46c26f6)" style="fill: none; stroke: #4c4c4c; stroke-linecap: round"/>
   </g>
   <g id="patch_21">
    <path d="M 46.026015 39.564393 
Q 121.59146 117.199397 196.377086 194.033225 
" clip-path="url(#p46e46c26f6)" style="fill: none; stroke: #4c4c4c; stroke-linecap: round"/>
    <path d="M 195.970053 192.754819 
L 196.377086 194.033225 
L 195.110141 193.591808 
" clip-path="url(#p46e46c26f6)" style="fill: none; stroke: #4c4c4c; stroke-linecap: round"/>
   </g>
   <g id="patch_22">
    <path d="M 103.020646 165.039752 
Q 203.197037 156.91449 302.259053 148.879614 
" clip-path="url(#p46e46c26f6)" style="fill: none; stroke: #4c4c4c; stroke-linecap: round"/>
    <path d="M 301.014475 148.378591 
L 302.259053 148.879614 
L 301.111487 149.574663 
" clip-path="url(#p46e46c26f6)" style="fill: none; stroke: #4c4c4c; stroke-linecap: round"/>
   </g>
   <g id="patch_23">
    <path d="M 102.940953 167.126772 
Q 121.592677 170.152438 139.140794 172.999078 
" clip-path="url(#p46e46c26f6)" style="fill: none; stroke: #4c4c4c; stroke-linecap: round"/>
    <path d="M 138.052354 172.214669 
L 139.140794 172.999078 
L 137.860203 173.399185 
" clip-path="url(#p46e46c26f6)" style="fill: none; stroke: #4c4c4c; stroke-linecap: round"/>
   </g>
   <g id="patch_24">
    <path d="M 102.628822 163.066926 
Q 148.793158 148.089452 193.89403 133.457006 
" clip-path="url(#p46e46c26f6)" style="fill: none; stroke: #4c4c4c; stroke-linecap: round"/>
    <path d="M 192.567439 133.256614 
L 193.89403 133.457006 
L 192.937762 134.398044 
" clip-path="url(#p46e46c26f6)" style="fill: none; stroke: #4c4c4c; stroke-linecap: round"/>
   </g>
   <g id="patch_25">
    <path d="M 103.04223 148.556893 
Q 257.605021 156.914572 411.051409 165.211884 
" clip-path="url(#p46e46c26f6)" style="fill: none; stroke: #4c4c4c; stroke-linecap: round"/>
    <path d="M 409.885556 164.547966 
L 411.051409 165.211884 
L 409.820763 165.746215 
" clip-path="url(#p46e46c26f6)" style="fill: none; stroke: #4c4c4c; stroke-linecap: round"/>
   </g>
   <g id="patch_26">
    <path d="M 102.177228 179.600957 
Q 121.592012 170.152611 140.001488 161.193505 
" clip-path="url(#p46e46c26f6)" style="fill: none; stroke: #4c4c4c; stroke-linecap: round"/>
    <path d="M 138.659924 161.179108 
L 140.001488 161.193505 
L 139.185032 162.258118 
" clip-path="url(#p46e46c26f6)" style="fill: none; stroke: #4c4c4c; stroke-linecap: round"/>
   </g>
   <g id="patch_27">
    <path d="M 156.581006 170.775625 
Q 175.99579 161.327279 194.405266 152.368173 
" clip-path="url(#p46e46c26f6)" style="fill: none; stroke: #4c4c4c; stroke-linecap: round"/>
    <path d="M 193.063702 152.353776 
L 194.405266 152.368173 
L 193.58881 153.432786 
" clip-path="url(#p46e46c26f6)" style="fill: none; stroke: #4c4c4c; stroke-linecap: round"/>
   </g>
   <g id="patch_28">
    <path d="M 156.581006 178.354508 
Q 175.99579 187.802854 194.405266 196.76196 
" clip-path="url(#p46e46c26f6)" style="fill: none; stroke: #4c4c4c; stroke-linecap: round"/>
    <path d="M 193.58881 195.697347 
L 194.405266 196.76196 
L 193.063702 196.776357 
" clip-path="url(#p46e46c26f6)" style="fill: none; stroke: #4c4c4c; stroke-linecap: round"/>
   </g>
   <g id="patch_29">
    <path d="M 157.446008 174.097244 
Q 230.402903 170.152243 302.243394 166.26761 
" clip-path="url(#p46e46c26f6)" style="fill: none; stroke: #4c4c4c; stroke-linecap: round"/>
    <path d="M 301.012748 165.733278 
L 302.243394 166.26761 
L 301.077541 166.931528 
" clip-path="url(#p46e46c26f6)" style="fill: none; stroke: #4c4c4c; stroke-linecap: round"/>
   </g>
   <g id="patch_30">
    <path d="M 155.518433 169.111179 
Q 175.995609 152.502234 195.604467 136.597577 
" clip-path="url(#p46e46c26f6)" style="fill: none; stroke: #4c4c4c; stroke-linecap: round"/>
    <path d="M 194.294529 136.887511 
L 195.604467 136.597577 
L 195.050451 137.819488 
" clip-path="url(#p46e46c26f6)" style="fill: none; stroke: #4c4c4c; stroke-linecap: round"/>
   </g>
   <g id="patch_31">
    <path d="M 157.344731 175.952104 
Q 175.996456 178.97777 193.544572 181.82441 
" clip-path="url(#p46e46c26f6)" style="fill: none; stroke: #4c4c4c; stroke-linecap: round"/>
    <path d="M 192.456132 181.040001 
L 193.544572 181.82441 
L 192.263981 182.224517 
" clip-path="url(#p46e46c26f6)" style="fill: none; stroke: #4c4c4c; stroke-linecap: round"/>
   </g>
   <g id="patch_32">
    <path d="M 157.344731 173.178028 
Q 175.996456 170.152363 193.544572 167.305723 
" clip-path="url(#p46e46c26f6)" style="fill: none; stroke: #4c4c4c; stroke-linecap: round"/>
    <path d="M 192.263981 166.905616 
L 193.544572 167.305723 
L 192.456132 168.090132 
" clip-path="url(#p46e46c26f6)" style="fill: none; stroke: #4c4c4c; stroke-linecap: round"/>
   </g>
   <g id="patch_33">
    <path d="M 211.748509 164.352696 
Q 230.400234 161.327031 247.94835 158.480391 
" clip-path="url(#p46e46c26f6)" style="fill: none; stroke: #4c4c4c; stroke-linecap: round"/>
    <path d="M 246.667759 158.080284 
L 247.94835 158.480391 
L 246.85991 159.2648 
" clip-path="url(#p46e46c26f6)" style="fill: none; stroke: #4c4c4c; stroke-linecap: round"/>
   </g>
   <g id="patch_34">
    <path d="M 209.922211 153.542958 
Q 230.399387 170.151903 250.008245 186.05656 
" clip-path="url(#p46e46c26f6)" style="fill: none; stroke: #4c4c4c; stroke-linecap: round"/>
    <path d="M 249.454229 184.834649 
L 250.008245 186.05656 
L 248.698307 185.766626 
" clip-path="url(#p46e46c26f6)" style="fill: none; stroke: #4c4c4c; stroke-linecap: round"/>
   </g>
   <g id="patch_35">
    <path d="M 211.748509 131.825444 
Q 230.400234 134.85111 247.94835 137.69775 
" clip-path="url(#p46e46c26f6)" style="fill: none; stroke: #4c4c4c; stroke-linecap: round"/>
    <path d="M 246.85991 136.913341 
L 247.94835 137.69775 
L 246.667759 138.097857 
" clip-path="url(#p46e46c26f6)" style="fill: none; stroke: #4c4c4c; stroke-linecap: round"/>
   </g>
   <g id="patch_36">
    <path d="M 210.984785 197.251621 
Q 230.399568 187.803275 248.809044 178.844169 
" clip-path="url(#p46e46c26f6)" style="fill: none; stroke: #4c4c4c; stroke-linecap: round"/>
    <path d="M 247.46748 178.829772 
L 248.809044 178.844169 
L 247.992588 179.908782 
" clip-path="url(#p46e46c26f6)" style="fill: none; stroke: #4c4c4c; stroke-linecap: round"/>
   </g>
   <g id="patch_37">
    <path d="M 266.152287 158.30144 
Q 284.804012 161.327106 302.352128 164.173746 
" clip-path="url(#p46e46c26f6)" style="fill: none; stroke: #4c4c4c; stroke-linecap: round"/>
    <path d="M 301.263688 163.389337 
L 302.352128 164.173746 
L 301.071537 164.573853 
" clip-path="url(#p46e46c26f6)" style="fill: none; stroke: #4c4c4c; stroke-linecap: round"/>
   </g>
   <g id="patch_38">
    <path d="M 265.388563 160.703844 
Q 284.803346 170.15219 303.212822 179.111296 
" clip-path="url(#p46e46c26f6)" style="fill: none; stroke: #4c4c4c; stroke-linecap: round"/>
    <path d="M 302.396366 178.046683 
L 303.212822 179.111296 
L 301.871258 179.125693 
" clip-path="url(#p46e46c26f6)" style="fill: none; stroke: #4c4c4c; stroke-linecap: round"/>
   </g>
   <g id="patch_39">
    <path d="M 264.325989 186.761843 
Q 284.803165 170.152898 304.412023 154.248241 
" clip-path="url(#p46e46c26f6)" style="fill: none; stroke: #4c4c4c; stroke-linecap: round"/>
    <path d="M 303.102085 154.538175 
L 304.412023 154.248241 
L 303.858007 155.470152 
" clip-path="url(#p46e46c26f6)" style="fill: none; stroke: #4c4c4c; stroke-linecap: round"/>
   </g>
   <g id="patch_40">
    <path d="M 320.243934 150.761879 
Q 339.208593 156.914739 357.109788 162.72257 
" clip-path="url(#p46e46c26f6)" style="fill: none; stroke: #4c4c4c; stroke-linecap: round"/>
    <path d="M 356.153521 161.781533 
L 357.109788 162.72257 
L 355.783197 162.922962 
" clip-path="url(#p46e46c26f6)" style="fill: none; stroke: #4c4c4c; stroke-linecap: round"/>
   </g>
   <g id="patch_41">
    <path d="M 375.072742 165.739734 
Q 393.61154 165.739734 411.032304 165.739734 
" clip-path="url(#p46e46c26f6)" style="fill: none; stroke: #4c4c4c; stroke-linecap: round"/>
    <path d="M 409.832304 165.139734 
L 411.032304 165.739734 
L 409.832304 166.339734 
" clip-path="url(#p46e46c26f6)" style="fill: none; stroke: #4c4c4c; stroke-linecap: round"/>
   </g>
   <g id="PathCollection_1">
    <path d="M 39.986777 324.430632 
C 42.283503 324.430632 44.486471 323.518133 46.110501 321.894102 
C 47.734532 320.270072 48.647031 318.067104 48.647031 315.770378 
C 48.647031 313.473652 47.734532 311.270684 46.110501 309.646654 
C 44.486471 308.022623 42.283503 307.110124 39.986777 307.110124 
C 37.690051 307.110124 35.487083 308.022623 33.863053 309.646654 
C 32.239022 311.270684 31.326523 313.473652 31.326523 315.770378 
C 31.326523 318.067104 32.239022 320.270072 33.863053 321.894102 
C 35.487083 323.518133 37.690051 324.430632 39.986777 324.430632 
z
" clip-path="url(#p46e46c26f6)" style="fill: #ffff00; stroke: #000000"/>
    <path d="M 39.986777 306.779968 
C 42.283503 306.779968 44.486471 305.867469 46.110501 304.243438 
C 47.734532 302.619408 48.647031 300.41644 48.647031 298.119714 
C 48.647031 295.822988 47.734532 293.62002 46.110501 291.99599 
C 44.486471 290.371959 42.283503 289.45946 39.986777 289.45946 
C 37.690051 289.45946 35.487083 290.371959 33.863053 291.99599 
C 32.239022 293.62002 31.326523 295.822988 31.326523 298.119714 
C 31.326523 300.41644 32.239022 302.619408 33.863053 304.243438 
C 35.487083 305.867469 37.690051 306.779968 39.986777 306.779968 
z
" clip-path="url(#p46e46c26f6)" style="fill: #ffff00; stroke: #000000"/>
    <path d="M 39.986777 289.129304 
C 42.283503 289.129304 44.486471 288.216805 46.110501 286.592774 
C 47.734532 284.968744 48.647031 282.765776 48.647031 280.46905 
C 48.647031 278.172324 47.734532 275.969356 46.110501 274.345326 
C 44.486471 272.721295 42.283503 271.808796 39.986777 271.808796 
C 37.690051 271.808796 35.487083 272.721295 33.863053 274.345326 
C 32.239022 275.969356 31.326523 278.172324 31.326523 280.46905 
C 31.326523 282.765776 32.239022 284.968744 33.863053 286.592774 
C 35.487083 288.216805 37.690051 289.129304 39.986777 289.129304 
z
" clip-path="url(#p46e46c26f6)" style="fill: #ffff00; stroke: #000000"/>
    <path d="M 39.986777 271.47864 
C 42.283503 271.47864 44.486471 270.566141 46.110501 268.94211 
C 47.734532 267.31808 48.647031 265.115112 48.647031 262.818386 
C 48.647031 260.52166 47.734532 258.318692 46.110501 256.694662 
C 44.486471 255.070631 42.283503 254.158132 39.986777 254.158132 
C 37.690051 254.158132 35.487083 255.070631 33.863053 256.694662 
C 32.239022 258.318692 31.326523 260.52166 31.326523 262.818386 
C 31.326523 265.115112 32.239022 267.31808 33.863053 268.94211 
C 35.487083 270.566141 37.690051 271.47864 39.986777 271.47864 
z
" clip-path="url(#p46e46c26f6)" style="fill: #ffff00; stroke: #000000"/>
    <path d="M 39.986777 253.827976 
C 42.283503 253.827976 44.486471 252.915477 46.110501 251.291447 
C 47.734532 249.667416 48.647031 247.464448 48.647031 245.167722 
C 48.647031 242.870996 47.734532 240.668028 46.110501 239.043998 
C 44.486471 237.419967 42.283503 236.507468 39.986777 236.507468 
C 37.690051 236.507468 35.487083 237.419967 33.863053 239.043998 
C 32.239022 240.668028 31.326523 242.870996 31.326523 245.167722 
C 31.326523 247.464448 32.239022 249.667416 33.863053 251.291447 
C 35.487083 252.915477 37.690051 253.827976 39.986777 253.827976 
z
" clip-path="url(#p46e46c26f6)" style="fill: #ffff00; stroke: #000000"/>
    <path d="M 39.986777 236.177312 
C 42.283503 236.177312 44.486471 235.264813 46.110501 233.640783 
C 47.734532 232.016752 48.647031 229.813784 48.647031 227.517058 
C 48.647031 225.220332 47.734532 223.017365 46.110501 221.393334 
C 44.486471 219.769303 42.283503 218.856804 39.986777 218.856804 
C 37.690051 218.856804 35.487083 219.769303 33.863053 221.393334 
C 32.239022 223.017365 31.326523 225.220332 31.326523 227.517058 
C 31.326523 229.813784 32.239022 232.016752 33.863053 233.640783 
C 35.487083 235.264813 37.690051 236.177312 39.986777 236.177312 
z
" clip-path="url(#p46e46c26f6)" style="fill: #ffff00; stroke: #000000"/>
    <path d="M 39.986777 218.526648 
C 42.283503 218.526648 44.486471 217.614149 46.110501 215.990119 
C 47.734532 214.366088 48.647031 212.16312 48.647031 209.866394 
C 48.647031 207.569668 47.734532 205.366701 46.110501 203.74267 
C 44.486471 202.118639 42.283503 201.20614 39.986777 201.20614 
C 37.690051 201.20614 35.487083 202.118639 33.863053 203.74267 
C 32.239022 205.366701 31.326523 207.569668 31.326523 209.866394 
C 31.326523 212.16312 32.239022 214.366088 33.863053 215.990119 
C 35.487083 217.614149 37.690051 218.526648 39.986777 218.526648 
z
" clip-path="url(#p46e46c26f6)" style="fill: #ffff00; stroke: #000000"/>
    <path d="M 39.986777 200.875984 
C 42.283503 200.875984 44.486471 199.963485 46.110501 198.339455 
C 47.734532 196.715424 48.647031 194.512457 48.647031 192.21573 
C 48.647031 189.919004 47.734532 187.716037 46.110501 186.092006 
C 44.486471 184.467975 42.283503 183.555476 39.986777 183.555476 
C 37.690051 183.555476 35.487083 184.467975 33.863053 186.092006 
C 32.239022 187.716037 31.326523 189.919004 31.326523 192.21573 
C 31.326523 194.512457 32.239022 196.715424 33.863053 198.339455 
C 35.487083 199.963485 37.690051 200.875984 39.986777 200.875984 
z
" clip-path="url(#p46e46c26f6)" style="fill: #ffff00; stroke: #000000"/>
    <path d="M 39.986777 183.22532 
C 42.283503 183.22532 44.486471 182.312821 46.110501 180.688791 
C 47.734532 179.06476 48.647031 176.861793 48.647031 174.565066 
C 48.647031 172.26834 47.734532 170.065373 46.110501 168.441342 
C 44.486471 166.817311 42.283503 165.904812 39.986777 165.904812 
C 37.690051 165.904812 35.487083 166.817311 33.863053 168.441342 
C 32.239022 170.065373 31.326523 172.26834 31.326523 174.565066 
C 31.326523 176.861793 32.239022 179.06476 33.863053 180.688791 
C 35.487083 182.312821 37.690051 183.22532 39.986777 183.22532 
z
" clip-path="url(#p46e46c26f6)" style="fill: #ffff00; stroke: #000000"/>
    <path d="M 39.986777 165.574656 
C 42.283503 165.574656 44.486471 164.662157 46.110501 163.038127 
C 47.734532 161.414096 48.647031 159.211129 48.647031 156.914402 
C 48.647031 154.617676 47.734532 152.414709 46.110501 150.790678 
C 44.486471 149.166647 42.283503 148.254148 39.986777 148.254148 
C 37.690051 148.254148 35.487083 149.166647 33.863053 150.790678 
C 32.239022 152.414709 31.326523 154.617676 31.326523 156.914402 
C 31.326523 159.211129 32.239022 161.414096 33.863053 163.038127 
C 35.487083 164.662157 37.690051 165.574656 39.986777 165.574656 
z
" clip-path="url(#p46e46c26f6)" style="fill: #ffff00; stroke: #000000"/>
    <path d="M 39.986777 147.923993 
C 42.283503 147.923993 44.486471 147.011494 46.110501 145.387463 
C 47.734532 143.763432 48.647031 141.560465 48.647031 139.263739 
C 48.647031 136.967012 47.734532 134.764045 46.110501 133.140014 
C 44.486471 131.515983 42.283503 130.603484 39.986777 130.603484 
C 37.690051 130.603484 35.487083 131.515983 33.863053 133.140014 
C 32.239022 134.764045 31.326523 136.967012 31.326523 139.263739 
C 31.326523 141.560465 32.239022 143.763432 33.863053 145.387463 
C 35.487083 147.011494 37.690051 147.923993 39.986777 147.923993 
z
" clip-path="url(#p46e46c26f6)" style="fill: #ffff00; stroke: #000000"/>
    <path d="M 39.986777 130.273329 
C 42.283503 130.273329 44.486471 129.36083 46.110501 127.736799 
C 47.734532 126.112768 48.647031 123.909801 48.647031 121.613075 
C 48.647031 119.316348 47.734532 117.113381 46.110501 115.48935 
C 44.486471 113.86532 42.283503 112.952821 39.986777 112.952821 
C 37.690051 112.952821 35.487083 113.86532 33.863053 115.48935 
C 32.239022 117.113381 31.326523 119.316348 31.326523 121.613075 
C 31.326523 123.909801 32.239022 126.112768 33.863053 127.736799 
C 35.487083 129.36083 37.690051 130.273329 39.986777 130.273329 
z
" clip-path="url(#p46e46c26f6)" style="fill: #ffff00; stroke: #000000"/>
    <path d="M 39.986777 112.622665 
C 42.283503 112.622665 44.486471 111.710166 46.110501 110.086135 
C 47.734532 108.462104 48.647031 106.259137 48.647031 103.962411 
C 48.647031 101.665684 47.734532 99.462717 46.110501 97.838686 
C 44.486471 96.214656 42.283503 95.302157 39.986777 95.302157 
C 37.690051 95.302157 35.487083 96.214656 33.863053 97.838686 
C 32.239022 99.462717 31.326523 101.665684 31.326523 103.962411 
C 31.326523 106.259137 32.239022 108.462104 33.863053 110.086135 
C 35.487083 111.710166 37.690051 112.622665 39.986777 112.622665 
z
" clip-path="url(#p46e46c26f6)" style="fill: #ffff00; stroke: #000000"/>
    <path d="M 39.986777 94.972001 
C 42.283503 94.972001 44.486471 94.059502 46.110501 92.435471 
C 47.734532 90.81144 48.647031 88.608473 48.647031 86.311747 
C 48.647031 84.01502 47.734532 81.812053 46.110501 80.188022 
C 44.486471 78.563992 42.283503 77.651493 39.986777 77.651493 
C 37.690051 77.651493 35.487083 78.563992 33.863053 80.188022 
C 32.239022 81.812053 31.326523 84.01502 31.326523 86.311747 
C 31.326523 88.608473 32.239022 90.81144 33.863053 92.435471 
C 35.487083 94.059502 37.690051 94.972001 39.986777 94.972001 
z
" clip-path="url(#p46e46c26f6)" style="fill: #ffff00; stroke: #000000"/>
    <path d="M 39.986777 77.321337 
C 42.283503 77.321337 44.486471 76.408838 46.110501 74.784807 
C 47.734532 73.160776 48.647031 70.957809 48.647031 68.661083 
C 48.647031 66.364357 47.734532 64.161389 46.110501 62.537358 
C 44.486471 60.913328 42.283503 60.000829 39.986777 60.000829 
C 37.690051 60.000829 35.487083 60.913328 33.863053 62.537358 
C 32.239022 64.161389 31.326523 66.364357 31.326523 68.661083 
C 31.326523 70.957809 32.239022 73.160776 33.863053 74.784807 
C 35.487083 76.408838 37.690051 77.321337 39.986777 77.321337 
z
" clip-path="url(#p46e46c26f6)" style="fill: #ffff00; stroke: #000000"/>
    <path d="M 39.986777 59.670673 
C 42.283503 59.670673 44.486471 58.758174 46.110501 57.134143 
C 47.734532 55.510112 48.647031 53.307145 48.647031 51.010419 
C 48.647031 48.713693 47.734532 46.510725 46.110501 44.886694 
C 44.486471 43.262664 42.283503 42.350165 39.986777 42.350165 
C 37.690051 42.350165 35.487083 43.262664 33.863053 44.886694 
C 32.239022 46.510725 31.326523 48.713693 31.326523 51.010419 
C 31.326523 53.307145 32.239022 55.510112 33.863053 57.134143 
C 35.487083 58.758174 37.690051 59.670673 39.986777 59.670673 
z
" clip-path="url(#p46e46c26f6)" style="fill: #ffff00; stroke: #000000"/>
    <path d="M 39.986777 42.020009 
C 42.283503 42.020009 44.486471 41.10751 46.110501 39.483479 
C 47.734532 37.859449 48.647031 35.656481 48.647031 33.359755 
C 48.647031 31.063029 47.734532 28.860061 46.110501 27.23603 
C 44.486471 25.612 42.283503 24.699501 39.986777 24.699501 
C 37.690051 24.699501 35.487083 25.612 33.863053 27.23603 
C 32.239022 28.860061 31.326523 31.063029 31.326523 33.359755 
C 31.326523 35.656481 32.239022 37.859449 33.863053 39.483479 
C 35.487083 41.10751 37.690051 42.020009 39.986777 42.020009 
z
" clip-path="url(#p46e46c26f6)" style="fill: #ffff00; stroke: #000000"/>
    <path d="M 39.986777 24.369345 
C 42.283503 24.369345 44.486471 23.456846 46.110501 21.832815 
C 47.734532 20.208785 48.647031 18.005817 48.647031 15.709091 
C 48.647031 13.412365 47.734532 11.209397 46.110501 9.585367 
C 44.486471 7.961336 42.283503 7.048837 39.986777 7.048837 
C 37.690051 7.048837 35.487083 7.961336 33.863053 9.585367 
C 32.239022 11.209397 31.326523 13.412365 31.326523 15.709091 
C 31.326523 18.005817 32.239022 20.208785 33.863053 21.832815 
C 35.487083 23.456846 37.690051 24.369345 39.986777 24.369345 
z
" clip-path="url(#p46e46c26f6)" style="fill: #ffffff; stroke: #000000"/>
    <path d="M 94.390555 174.399988 
C 96.687281 174.399988 98.890249 173.487489 100.514279 171.863459 
C 102.13831 170.239428 103.050809 168.036461 103.050809 165.739734 
C 103.050809 163.443008 102.13831 161.240041 100.514279 159.61601 
C 98.890249 157.991979 96.687281 157.07948 94.390555 157.07948 
C 92.093829 157.07948 89.890861 157.991979 88.266831 159.61601 
C 86.6428 161.240041 85.730301 163.443008 85.730301 165.739734 
C 85.730301 168.036461 86.6428 170.239428 88.266831 171.863459 
C 89.890861 173.487489 92.093829 174.399988 94.390555 174.399988 
z
" clip-path="url(#p46e46c26f6)" style="fill: #ffffff; stroke: #000000"/>
    <path d="M 94.390555 156.749325 
C 96.687281 156.749325 98.890249 155.836826 100.514279 154.212795 
C 102.13831 152.588764 103.050809 150.385797 103.050809 148.08907 
C 103.050809 145.792344 102.13831 143.589377 100.514279 141.965346 
C 98.890249 140.341315 96.687281 139.428816 94.390555 139.428816 
C 92.093829 139.428816 89.890861 140.341315 88.266831 141.965346 
C 86.6428 143.589377 85.730301 145.792344 85.730301 148.08907 
C 85.730301 150.385797 86.6428 152.588764 88.266831 154.212795 
C 89.890861 155.836826 92.093829 156.749325 94.390555 156.749325 
z
" clip-path="url(#p46e46c26f6)" style="fill: #ffffff; stroke: #000000"/>
    <path d="M 94.390555 192.050652 
C 96.687281 192.050652 98.890249 191.138153 100.514279 189.514123 
C 102.13831 187.890092 103.050809 185.687125 103.050809 183.390398 
C 103.050809 181.093672 102.13831 178.890705 100.514279 177.266674 
C 98.890249 175.642643 96.687281 174.730144 94.390555 174.730144 
C 92.093829 174.730144 89.890861 175.642643 88.266831 177.266674 
C 86.6428 178.890705 85.730301 181.093672 85.730301 183.390398 
C 85.730301 185.687125 86.6428 187.890092 88.266831 189.514123 
C 89.890861 191.138153 92.093829 192.050652 94.390555 192.050652 
z
" clip-path="url(#p46e46c26f6)" style="fill: #ffffff; stroke: #000000"/>
    <path d="M 148.794333 183.22532 
C 151.091059 183.22532 153.294027 182.312821 154.918057 180.688791 
C 156.542088 179.06476 157.454587 176.861793 157.454587 174.565066 
C 157.454587 172.26834 156.542088 170.065373 154.918057 168.441342 
C 153.294027 166.817311 151.091059 165.904812 148.794333 165.904812 
C 146.497607 165.904812 144.294639 166.817311 142.670609 168.441342 
C 141.046578 170.065373 140.134079 172.26834 140.134079 174.565066 
C 140.134079 176.861793 141.046578 179.06476 142.670609 180.688791 
C 144.294639 182.312821 146.497607 183.22532 148.794333 183.22532 
z
" clip-path="url(#p46e46c26f6)" style="fill: #ffffff; stroke: #000000"/>
    <path d="M 148.794333 165.574656 
C 151.091059 165.574656 153.294027 164.662157 154.918057 163.038127 
C 156.542088 161.414096 157.454587 159.211129 157.454587 156.914402 
C 157.454587 154.617676 156.542088 152.414709 154.918057 150.790678 
C 153.294027 149.166647 151.091059 148.254148 148.794333 148.254148 
C 146.497607 148.254148 144.294639 149.166647 142.670609 150.790678 
C 141.046578 152.414709 140.134079 154.617676 140.134079 156.914402 
C 140.134079 159.211129 141.046578 161.414096 142.670609 163.038127 
C 144.294639 164.662157 146.497607 165.574656 148.794333 165.574656 
z
" clip-path="url(#p46e46c26f6)" style="fill: #ffffff; stroke: #000000"/>
    <path d="M 203.198111 192.050652 
C 205.494837 192.050652 207.697805 191.138153 209.321835 189.514123 
C 210.945866 187.890092 211.858365 185.687125 211.858365 183.390398 
C 211.858365 181.093672 210.945866 178.890705 209.321835 177.266674 
C 207.697805 175.642643 205.494837 174.730144 203.198111 174.730144 
C 200.901385 174.730144 198.698417 175.642643 197.074387 177.266674 
C 195.450356 178.890705 194.537857 181.093672 194.537857 183.390398 
C 194.537857 185.687125 195.450356 187.890092 197.074387 189.514123 
C 198.698417 191.138153 200.901385 192.050652 203.198111 192.050652 
z
" clip-path="url(#p46e46c26f6)" style="fill: #0000ff; stroke: #000000"/>
    <path d="M 203.198111 174.399988 
C 205.494837 174.399988 207.697805 173.487489 209.321835 171.863459 
C 210.945866 170.239428 211.858365 168.036461 211.858365 165.739734 
C 211.858365 163.443008 210.945866 161.240041 209.321835 159.61601 
C 207.697805 157.991979 205.494837 157.07948 203.198111 157.07948 
C 200.901385 157.07948 198.698417 157.991979 197.074387 159.61601 
C 195.450356 161.240041 194.537857 163.443008 194.537857 165.739734 
C 194.537857 168.036461 195.450356 170.239428 197.074387 171.863459 
C 198.698417 173.487489 200.901385 174.399988 203.198111 174.399988 
z
" clip-path="url(#p46e46c26f6)" style="fill: #0000ff; stroke: #000000"/>
    <path d="M 203.198111 156.749325 
C 205.494837 156.749325 207.697805 155.836826 209.321835 154.212795 
C 210.945866 152.588764 211.858365 150.385797 211.858365 148.08907 
C 211.858365 145.792344 210.945866 143.589377 209.321835 141.965346 
C 207.697805 140.341315 205.494837 139.428816 203.198111 139.428816 
C 200.901385 139.428816 198.698417 140.341315 197.074387 141.965346 
C 195.450356 143.589377 194.537857 145.792344 194.537857 148.08907 
C 194.537857 150.385797 195.450356 152.588764 197.074387 154.212795 
C 198.698417 155.836826 200.901385 156.749325 203.198111 156.749325 
z
" clip-path="url(#p46e46c26f6)" style="fill: #ffffff; stroke: #000000"/>
    <path d="M 203.198111 139.098661 
C 205.494837 139.098661 207.697805 138.186162 209.321835 136.562131 
C 210.945866 134.9381 211.858365 132.735133 211.858365 130.438407 
C 211.858365 128.14168 210.945866 125.938713 209.321835 124.314682 
C 207.697805 122.690651 205.494837 121.778152 203.198111 121.778152 
C 200.901385 121.778152 198.698417 122.690651 197.074387 124.314682 
C 195.450356 125.938713 194.537857 128.14168 194.537857 130.438407 
C 194.537857 132.735133 195.450356 134.9381 197.074387 136.562131 
C 198.698417 138.186162 200.901385 139.098661 203.198111 139.098661 
z
" clip-path="url(#p46e46c26f6)" style="fill: #ffffff; stroke: #000000"/>
    <path d="M 203.198111 209.701316 
C 205.494837 209.701316 207.697805 208.788817 209.321835 207.164787 
C 210.945866 205.540756 211.858365 203.337789 211.858365 201.041062 
C 211.858365 198.744336 210.945866 196.541369 209.321835 194.917338 
C 207.697805 193.293307 205.494837 192.380808 203.198111 192.380808 
C 200.901385 192.380808 198.698417 193.293307 197.074387 194.917338 
C 195.450356 196.541369 194.537857 198.744336 194.537857 201.041062 
C 194.537857 203.337789 195.450356 205.540756 197.074387 207.164787 
C 198.698417 208.788817 200.901385 209.701316 203.198111 209.701316 
z
" clip-path="url(#p46e46c26f6)" style="fill: #ffffff; stroke: #000000"/>
    <path d="M 257.601889 183.22532 
C 259.898615 183.22532 262.101583 182.312821 263.725613 180.688791 
C 265.349644 179.06476 266.262143 176.861793 266.262143 174.565066 
C 266.262143 172.26834 265.349644 170.065373 263.725613 168.441342 
C 262.101583 166.817311 259.898615 165.904812 257.601889 165.904812 
C 255.305163 165.904812 253.102195 166.817311 251.478165 168.441342 
C 249.854134 170.065373 248.941635 172.26834 248.941635 174.565066 
C 248.941635 176.861793 249.854134 179.06476 251.478165 180.688791 
C 253.102195 182.312821 255.305163 183.22532 257.601889 183.22532 
z
" clip-path="url(#p46e46c26f6)" style="fill: #0000ff; stroke: #000000"/>
    <path d="M 257.601889 147.923993 
C 259.898615 147.923993 262.101583 147.011494 263.725613 145.387463 
C 265.349644 143.763432 266.262143 141.560465 266.262143 139.263739 
C 266.262143 136.967012 265.349644 134.764045 263.725613 133.140014 
C 262.101583 131.515983 259.898615 130.603484 257.601889 130.603484 
C 255.305163 130.603484 253.102195 131.515983 251.478165 133.140014 
C 249.854134 134.764045 248.941635 136.967012 248.941635 139.263739 
C 248.941635 141.560465 249.854134 143.763432 251.478165 145.387463 
C 253.102195 147.011494 255.305163 147.923993 257.601889 147.923993 
z
" clip-path="url(#p46e46c26f6)" style="fill: #0000ff; stroke: #000000"/>
    <path d="M 257.601889 165.574656 
C 259.898615 165.574656 262.101583 164.662157 263.725613 163.038127 
C 265.349644 161.414096 266.262143 159.211129 266.262143 156.914402 
C 266.262143 154.617676 265.349644 152.414709 263.725613 150.790678 
C 262.101583 149.166647 259.898615 148.254148 257.601889 148.254148 
C 255.305163 148.254148 253.102195 149.166647 251.478165 150.790678 
C 249.854134 152.414709 248.941635 154.617676 248.941635 156.914402 
C 248.941635 159.211129 249.854134 161.414096 251.478165 163.038127 
C 253.102195 164.662157 255.305163 165.574656 257.601889 165.574656 
z
" clip-path="url(#p46e46c26f6)" style="fill: #ffffff; stroke: #000000"/>
    <path d="M 257.601889 200.875984 
C 259.898615 200.875984 262.101583 199.963485 263.725613 198.339455 
C 265.349644 196.715424 266.262143 194.512457 266.262143 192.21573 
C 266.262143 189.919004 265.349644 187.716037 263.725613 186.092006 
C 262.101583 184.467975 259.898615 183.555476 257.601889 183.555476 
C 255.305163 183.555476 253.102195 184.467975 251.478165 186.092006 
C 249.854134 187.716037 248.941635 189.919004 248.941635 192.21573 
C 248.941635 194.512457 249.854134 196.715424 251.478165 198.339455 
C 253.102195 199.963485 255.305163 200.875984 257.601889 200.875984 
z
" clip-path="url(#p46e46c26f6)" style="fill: #ffffff; stroke: #000000"/>
    <path d="M 312.005667 174.399988 
C 314.302393 174.399988 316.505361 173.487489 318.129391 171.863459 
C 319.753422 170.239428 320.665921 168.036461 320.665921 165.739734 
C 320.665921 163.443008 319.753422 161.240041 318.129391 159.61601 
C 316.505361 157.991979 314.302393 157.07948 312.005667 157.07948 
C 309.708941 157.07948 307.505973 157.991979 305.881943 159.61601 
C 304.257912 161.240041 303.345413 163.443008 303.345413 165.739734 
C 303.345413 168.036461 304.257912 170.239428 305.881943 171.863459 
C 307.505973 173.487489 309.708941 174.399988 312.005667 174.399988 
z
" clip-path="url(#p46e46c26f6)" style="fill: #0000ff; stroke: #000000"/>
    <path d="M 312.005667 192.050652 
C 314.302393 192.050652 316.505361 191.138153 318.129391 189.514123 
C 319.753422 187.890092 320.665921 185.687125 320.665921 183.390398 
C 320.665921 181.093672 319.753422 178.890705 318.129391 177.266674 
C 316.505361 175.642643 314.302393 174.730144 312.005667 174.730144 
C 309.708941 174.730144 307.505973 175.642643 305.881943 177.266674 
C 304.257912 178.890705 303.345413 181.093672 303.345413 183.390398 
C 303.345413 185.687125 304.257912 187.890092 305.881943 189.514123 
C 307.505973 191.138153 309.708941 192.050652 312.005667 192.050652 
z
" clip-path="url(#p46e46c26f6)" style="fill: #ffffff; stroke: #000000"/>
    <path d="M 312.005667 156.749325 
C 314.302393 156.749325 316.505361 155.836826 318.129391 154.212795 
C 319.753422 152.588764 320.665921 150.385797 320.665921 148.08907 
C 320.665921 145.792344 319.753422 143.589377 318.129391 141.965346 
C 316.505361 140.341315 314.302393 139.428816 312.005667 139.428816 
C 309.708941 139.428816 307.505973 140.341315 305.881943 141.965346 
C 304.257912 143.589377 303.345413 145.792344 303.345413 148.08907 
C 303.345413 150.385797 304.257912 152.588764 305.881943 154.212795 
C 307.505973 155.836826 309.708941 156.749325 312.005667 156.749325 
z
" clip-path="url(#p46e46c26f6)" style="fill: #ffffff; stroke: #000000"/>
    <path d="M 366.409445 174.399988 
C 368.706171 174.399988 370.909139 173.487489 372.533169 171.863459 
C 374.1572 170.239428 375.069699 168.036461 375.069699 165.739734 
C 375.069699 163.443008 374.1572 161.240041 372.533169 159.61601 
C 370.909139 157.991979 368.706171 157.07948 366.409445 157.07948 
C 364.112719 157.07948 361.909751 157.991979 360.285721 159.61601 
C 358.66169 161.240041 357.749191 163.443008 357.749191 165.739734 
C 357.749191 168.036461 358.66169 170.239428 360.285721 171.863459 
C 361.909751 173.487489 364.112719 174.399988 366.409445 174.399988 
z
" clip-path="url(#p46e46c26f6)" style="fill: #ffffff; stroke: #000000"/>
    <path d="M 420.813223 174.399988 
C 423.109949 174.399988 425.312917 173.487489 426.936947 171.863459 
C 428.560978 170.239428 429.473477 168.036461 429.473477 165.739734 
C 429.473477 163.443008 428.560978 161.240041 426.936947 159.61601 
C 425.312917 157.991979 423.109949 157.07948 420.813223 157.07948 
C 418.516497 157.07948 416.313529 157.991979 414.689499 159.61601 
C 413.065468 161.240041 412.152969 163.443008 412.152969 165.739734 
C 412.152969 168.036461 413.065468 170.239428 414.689499 171.863459 
C 416.313529 173.487489 418.516497 174.399988 420.813223 174.399988 
z
" clip-path="url(#p46e46c26f6)" style="fill: #0000ff; stroke: #000000"/>
   </g>
  </g>
 </g>
 <defs>
  <clipPath id="p46e46c26f6">
   <rect x="0" y="0" width="460.8" height="345.6"/>
  </clipPath>
 </defs>
</svg>
