<?xml version="1.0" encoding="utf-8" standalone="no"?>
<!DOCTYPE svg PUBLIC "-//W3C//DTD SVG 1.1//EN"
  "http://www.w3.org/Graphics/SVG/1.1/DTD/svg11.dtd">
<svg xmlns:xlink="http://www.w3.org/1999/xlink" width="460.8pt" height="345.6pt" viewBox="0 0 460.8 345.6" xmlns="http://www.w3.org/2000/svg" version="1.1">
 <metadata>
  <rdf:RDF xmlns:dc="http://purl.org/dc/elements/1.1/" xmlns:cc="http://creativecommons.org/ns#" xmlns:rdf="http://www.w3.org/1999/02/22-rdf-syntax-ns#">
   <cc:Work>
    <dc:type rdf:resource="http://purl.org/dc/dcmitype/StillImage"/>
    <dc:date>2024-07-12T07:46:33.195425</dc:date>
    <dc:format>image/svg+xml</dc:format>
    <dc:creator>
     <cc:Agent>
      <dc:title>Matplotlib v3.9.0, https://matplotlib.org/</dc:title>
     </cc:Agent>
    </dc:creator>
   </cc:Work>
  </rdf:RDF>
 </metadata>
 <defs>
  <style type="text/css">*{stroke-linejoin: round; stroke-linecap: butt}</style>
 </defs>
 <g id="figure_1">
  <g id="patch_1">
   <path d="M 0 345.6 
L 460.8 345.6 
L 460.8 0 
L 0 0 
z
" style="fill: #ffffff"/>
  </g>
  <g id="axes_1">
   <g id="patch_2">
    <path d="M 48.095958 312.568974 
Q 230.401029 244.204573 411.659252 176.232739 
" clip-path="url(#pbc29be279d)" style="fill: none; stroke: #4c4c4c; stroke-linecap: round"/>
    <path d="M 410.324982 176.09229 
L 411.659252 176.232739 
L 410.746331 177.215885 
" clip-path="url(#pbc29be279d)" style="fill: none; stroke: #4c4c4c; stroke-linecap: round"/>
   </g>
   <g id="patch_3">
    <path d="M 46.916335 310.412749 
Q 135.193491 244.204882 222.57622 178.667835 
" clip-path="url(#pbc29be279d)" style="fill: none; stroke: #4c4c4c; stroke-linecap: round"/>
    <path d="M 221.25622 178.907835 
L 222.57622 178.667835 
L 221.97622 179.867835 
" clip-path="url(#pbc29be279d)" style="fill: none; stroke: #4c4c4c; stroke-linecap: round"/>
   </g>
   <g id="patch_4">
    <path d="M 48.647998 172.8 
Q 135.193467 172.8 220.620902 172.8 
" clip-path="url(#pbc29be279d)" style="fill: none; stroke: #4c4c4c; stroke-linecap: round"/>
    <path d="M 219.420902 172.2 
L 220.620902 172.8 
L 219.420902 173.4 
" clip-path="url(#pbc29be279d)" style="fill: none; stroke: #4c4c4c; stroke-linecap: round"/>
   </g>
   <g id="patch_5">
    <path d="M 48.647998 172.8 
Q 87.590519 172.8 125.415005 172.8 
" clip-path="url(#pbc29be279d)" style="fill: none; stroke: #4c4c4c; stroke-linecap: round"/>
    <path d="M 124.215005 172.2 
L 125.415005 172.8 
L 124.215005 173.4 
" clip-path="url(#pbc29be279d)" style="fill: none; stroke: #4c4c4c; stroke-linecap: round"/>
   </g>
   <g id="patch_6">
    <path d="M 46.916335 35.187251 
Q 135.193491 101.395118 222.57622 166.932165 
" clip-path="url(#pbc29be279d)" style="fill: none; stroke: #4c4c4c; stroke-linecap: round"/>
    <path d="M 221.97622 165.732165 
L 222.57622 166.932165 
L 221.25622 166.692165 
" clip-path="url(#pbc29be279d)" style="fill: none; stroke: #4c4c4c; stroke-linecap: round"/>
   </g>
   <g id="patch_7">
    <path d="M 48.095958 33.031026 
Q 230.401029 101.395427 411.659252 169.367261 
" clip-path="url(#pbc29be279d)" style="fill: none; stroke: #4c4c4c; stroke-linecap: round"/>
    <path d="M 410.746331 168.384115 
L 411.659252 169.367261 
L 410.324982 169.50771 
" clip-path="url(#pbc29be279d)" style="fill: none; stroke: #4c4c4c; stroke-linecap: round"/>
   </g>
   <g id="patch_8">
    <path d="M 47.731321 33.862355 
Q 182.795689 101.394539 316.860058 168.426723 
" clip-path="url(#pbc29be279d)" style="fill: none; stroke: #4c4c4c; stroke-linecap: round"/>
    <path d="M 316.055073 167.35341 
L 316.860058 168.426723 
L 315.518417 168.426723 
" clip-path="url(#pbc29be279d)" style="fill: none; stroke: #4c4c4c; stroke-linecap: round"/>
   </g>
   <g id="patch_9">
    <path d="M 143.85461 172.8 
Q 182.79713 172.8 220.621616 172.8 
" clip-path="url(#pbc29be279d)" style="fill: none; stroke: #4c4c4c; stroke-linecap: round"/>
    <path d="M 219.421616 172.2 
L 220.621616 172.8 
L 219.421616 173.4 
" clip-path="url(#pbc29be279d)" style="fill: none; stroke: #4c4c4c; stroke-linecap: round"/>
   </g>
   <g id="patch_10">
    <path d="M 143.85461 172.8 
Q 230.400079 172.8 315.827513 172.8 
" clip-path="url(#pbc29be279d)" style="fill: none; stroke: #4c4c4c; stroke-linecap: round"/>
    <path d="M 314.627513 172.2 
L 315.827513 172.8 
L 314.627513 173.4 
" clip-path="url(#pbc29be279d)" style="fill: none; stroke: #4c4c4c; stroke-linecap: round"/>
   </g>
   <g id="patch_11">
    <path d="M 239.061222 172.8 
Q 278.003742 172.8 315.828228 172.8 
" clip-path="url(#pbc29be279d)" style="fill: none; stroke: #4c4c4c; stroke-linecap: round"/>
    <path d="M 314.628228 172.2 
L 315.828228 172.8 
L 314.628228 173.4 
" clip-path="url(#pbc29be279d)" style="fill: none; stroke: #4c4c4c; stroke-linecap: round"/>
   </g>
   <g id="patch_12">
    <path d="M 239.061222 172.8 
Q 325.60669 172.8 411.034125 172.8 
" clip-path="url(#pbc29be279d)" style="fill: none; stroke: #4c4c4c; stroke-linecap: round"/>
    <path d="M 409.834125 172.2 
L 411.034125 172.8 
L 409.834125 173.4 
" clip-path="url(#pbc29be279d)" style="fill: none; stroke: #4c4c4c; stroke-linecap: round"/>
   </g>
   <g id="patch_13">
    <path d="M 334.267833 172.8 
Q 373.210353 172.8 411.03484 172.8 
" clip-path="url(#pbc29be279d)" style="fill: none; stroke: #4c4c4c; stroke-linecap: round"/>
    <path d="M 409.83484 172.2 
L 411.03484 172.8 
L 409.83484 173.4 
" clip-path="url(#pbc29be279d)" style="fill: none; stroke: #4c4c4c; stroke-linecap: round"/>
   </g>
   <g id="PathCollection_1">
    <path d="M 39.986777 324.270171 
C 42.283503 324.270171 44.486471 323.357672 46.110501 321.733642 
C 47.734532 320.109611 48.647031 317.906644 48.647031 315.609917 
C 48.647031 313.313191 47.734532 311.110224 46.110501 309.486193 
C 44.486471 307.862162 42.283503 306.949663 39.986777 306.949663 
C 37.690051 306.949663 35.487083 307.862162 33.863053 309.486193 
C 32.239022 311.110224 31.326523 313.313191 31.326523 315.609917 
C 31.326523 317.906644 32.239022 320.109611 33.863053 321.733642 
C 35.487083 323.357672 37.690051 324.270171 39.986777 324.270171 
z
" clip-path="url(#pbc29be279d)" style="fill: #ffff00; stroke: #000000"/>
    <path d="M 39.986777 181.460254 
C 42.283503 181.460254 44.486471 180.547755 46.110501 178.923724 
C 47.734532 177.299694 48.647031 175.096726 48.647031 172.8 
C 48.647031 170.503274 47.734532 168.300306 46.110501 166.676276 
C 44.486471 165.052245 42.283503 164.139746 39.986777 164.139746 
C 37.690051 164.139746 35.487083 165.052245 33.863053 166.676276 
C 32.239022 168.300306 31.326523 170.503274 31.326523 172.8 
C 31.326523 175.096726 32.239022 177.299694 33.863053 178.923724 
C 35.487083 180.547755 37.690051 181.460254 39.986777 181.460254 
z
" clip-path="url(#pbc29be279d)" style="fill: #ffff00; stroke: #000000"/>
    <path d="M 39.986777 38.650337 
C 42.283503 38.650337 44.486471 37.737838 46.110501 36.113807 
C 47.734532 34.489776 48.647031 32.286809 48.647031 29.990083 
C 48.647031 27.693356 47.734532 25.490389 46.110501 23.866358 
C 44.486471 22.242328 42.283503 21.329829 39.986777 21.329829 
C 37.690051 21.329829 35.487083 22.242328 33.863053 23.866358 
C 32.239022 25.490389 31.326523 27.693356 31.326523 29.990083 
C 31.326523 32.286809 32.239022 34.489776 33.863053 36.113807 
C 35.487083 37.737838 37.690051 38.650337 39.986777 38.650337 
z
" clip-path="url(#pbc29be279d)" style="fill: #ffff00; stroke: #000000"/>
    <path d="M 135.193388 181.460254 
C 137.490115 181.460254 139.693082 180.547755 141.317113 178.923724 
C 142.941143 177.299694 143.853642 175.096726 143.853642 172.8 
C 143.853642 170.503274 142.941143 168.300306 141.317113 166.676276 
C 139.693082 165.052245 137.490115 164.139746 135.193388 164.139746 
C 132.896662 164.139746 130.693695 165.052245 129.069664 166.676276 
C 127.445633 168.300306 126.533134 170.503274 126.533134 172.8 
C 126.533134 175.096726 127.445633 177.299694 129.069664 178.923724 
C 130.693695 180.547755 132.896662 181.460254 135.193388 181.460254 
z
" clip-path="url(#pbc29be279d)" style="fill: #ffffff; stroke: #000000"/>
    <path d="M 230.4 181.460254 
C 232.696726 181.460254 234.899694 180.547755 236.523724 178.923724 
C 238.147755 177.299694 239.060254 175.096726 239.060254 172.8 
C 239.060254 170.503274 238.147755 168.300306 236.523724 166.676276 
C 234.899694 165.052245 232.696726 164.139746 230.4 164.139746 
C 228.103274 164.139746 225.900306 165.052245 224.276276 166.676276 
C 222.652245 168.300306 221.739746 170.503274 221.739746 172.8 
C 221.739746 175.096726 222.652245 177.299694 224.276276 178.923724 
C 225.900306 180.547755 228.103274 181.460254 230.4 181.460254 
z
" clip-path="url(#pbc29be279d)" style="fill: #ffffff; stroke: #000000"/>
    <path d="M 325.606612 181.460254 
C 327.903338 181.460254 330.106305 180.547755 331.730336 178.923724 
C 333.354367 177.299694 334.266866 175.096726 334.266866 172.8 
C 334.266866 170.503274 333.354367 168.300306 331.730336 166.676276 
C 330.106305 165.052245 327.903338 164.139746 325.606612 164.139746 
C 323.309885 164.139746 321.106918 165.052245 319.482887 166.676276 
C 317.858857 168.300306 316.946358 170.503274 316.946358 172.8 
C 316.946358 175.096726 317.858857 177.299694 319.482887 178.923724 
C 321.106918 180.547755 323.309885 181.460254 325.606612 181.460254 
z
" clip-path="url(#pbc29be279d)" style="fill: #ffffff; stroke: #000000"/>
    <path d="M 420.813223 181.460254 
C 423.109949 181.460254 425.312917 180.547755 426.936947 178.923724 
C 428.560978 177.299694 429.473477 175.096726 429.473477 172.8 
C 429.473477 170.503274 428.560978 168.300306 426.936947 166.676276 
C 425.312917 165.052245 423.109949 164.139746 420.813223 164.139746 
C 418.516497 164.139746 416.313529 165.052245 414.689499 166.676276 
C 413.065468 168.300306 412.152969 170.503274 412.152969 172.8 
C 412.152969 175.096726 413.065468 177.299694 414.689499 178.923724 
C 416.313529 180.547755 418.516497 181.460254 420.813223 181.460254 
z
" clip-path="url(#pbc29be279d)" style="fill: #0000ff; stroke: #000000"/>
   </g>
  </g>
 </g>
 <defs>
  <clipPath id="pbc29be279d">
   <rect x="0" y="0" width="460.8" height="345.6"/>
  </clipPath>
 </defs>
</svg>
