<?xml version="1.0" encoding="utf-8" standalone="no"?>
<!DOCTYPE svg PUBLIC "-//W3C//DTD SVG 1.1//EN"
  "http://www.w3.org/Graphics/SVG/1.1/DTD/svg11.dtd">
<svg xmlns:xlink="http://www.w3.org/1999/xlink" width="460.8pt" height="345.6pt" viewBox="0 0 460.8 345.6" xmlns="http://www.w3.org/2000/svg" version="1.1">
 <metadata>
  <rdf:RDF xmlns:dc="http://purl.org/dc/elements/1.1/" xmlns:cc="http://creativecommons.org/ns#" xmlns:rdf="http://www.w3.org/1999/02/22-rdf-syntax-ns#">
   <cc:Work>
    <dc:type rdf:resource="http://purl.org/dc/dcmitype/StillImage"/>
    <dc:date>2024-07-12T07:31:20.040778</dc:date>
    <dc:format>image/svg+xml</dc:format>
    <dc:creator>
     <cc:Agent>
      <dc:title>Matplotlib v3.9.0, https://matplotlib.org/</dc:title>
     </cc:Agent>
    </dc:creator>
   </cc:Work>
  </rdf:RDF>
 </metadata>
 <defs>
  <style type="text/css">*{stroke-linejoin: round; stroke-linecap: butt}</style>
 </defs>
 <g id="figure_1">
  <g id="patch_1">
   <path d="M 0 345.6 
L 460.8 345.6 
L 460.8 0 
L 0 0 
z
" style="fill: #ffffff"/>
  </g>
  <g id="axes_1">
   <g id="patch_2">
    <path d="M 45.234895 308.721762 
Q 148.794427 172.799876 251.676382 37.767311 
" clip-path="url(#p6aeac9e715)" style="fill: none; stroke: #4c4c4c; stroke-linecap: round"/>
    <path d="M 250.471871 38.358203 
L 251.676382 37.767311 
L 251.426389 39.085455 
" clip-path="url(#p6aeac9e715)" style="fill: none; stroke: #4c4c4c; stroke-linecap: round"/>
   </g>
   <g id="patch_3">
    <path d="M 48.095958 312.568974 
Q 230.401029 244.204573 411.659252 176.232739 
" clip-path="url(#p6aeac9e715)" style="fill: none; stroke: #4c4c4c; stroke-linecap: round"/>
    <path d="M 410.324982 176.09229 
L 411.659252 176.232739 
L 410.746331 177.215885 
" clip-path="url(#p6aeac9e715)" style="fill: none; stroke: #4c4c4c; stroke-linecap: round"/>
   </g>
   <g id="patch_4">
    <path d="M 47.228881 168.047369 
Q 148.796068 101.393903 249.428525 35.353853 
" clip-path="url(#p6aeac9e715)" style="fill: none; stroke: #4c4c4c; stroke-linecap: round"/>
    <path d="M 248.096073 35.510612 
L 249.428525 35.353853 
L 248.754461 36.513869 
" clip-path="url(#p6aeac9e715)" style="fill: none; stroke: #4c4c4c; stroke-linecap: round"/>
   </g>
   <g id="patch_5">
    <path d="M 48.647998 172.8 
Q 230.399113 172.8 411.032194 172.8 
" clip-path="url(#p6aeac9e715)" style="fill: none; stroke: #4c4c4c; stroke-linecap: round"/>
    <path d="M 409.832194 172.2 
L 411.032194 172.8 
L 409.832194 173.4 
" clip-path="url(#p6aeac9e715)" style="fill: none; stroke: #4c4c4c; stroke-linecap: round"/>
   </g>
   <g id="patch_6">
    <path d="M 43.069901 38.083284 
Q 67.188322 101.394138 90.908728 163.660203 
" clip-path="url(#p6aeac9e715)" style="fill: none; stroke: #4c4c4c; stroke-linecap: round"/>
    <path d="M 91.042226 162.325221 
L 90.908728 163.660203 
L 89.920841 162.752415 
" clip-path="url(#p6aeac9e715)" style="fill: none; stroke: #4c4c4c; stroke-linecap: round"/>
   </g>
   <g id="patch_7">
    <path d="M 48.095958 33.031026 
Q 230.401029 101.395427 411.659252 169.367261 
" clip-path="url(#p6aeac9e715)" style="fill: none; stroke: #4c4c4c; stroke-linecap: round"/>
    <path d="M 410.746331 168.384115 
L 411.659252 169.367261 
L 410.324982 169.50771 
" clip-path="url(#p6aeac9e715)" style="fill: none; stroke: #4c4c4c; stroke-linecap: round"/>
   </g>
   <g id="patch_8">
    <path d="M 47.653081 34.014892 
Q 175.995342 101.394579 303.347698 168.254566 
" clip-path="url(#p6aeac9e715)" style="fill: none; stroke: #4c4c4c; stroke-linecap: round"/>
    <path d="M 302.564121 167.165527 
L 303.347698 168.254566 
L 302.00632 168.228004 
" clip-path="url(#p6aeac9e715)" style="fill: none; stroke: #4c4c4c; stroke-linecap: round"/>
   </g>
   <g id="patch_9">
    <path d="M 48.650074 29.990083 
Q 148.794606 29.990083 247.821104 29.990083 
" clip-path="url(#p6aeac9e715)" style="fill: none; stroke: #4c4c4c; stroke-linecap: round"/>
    <path d="M 246.621104 29.390083 
L 247.821104 29.990083 
L 246.621104 30.590083 
" clip-path="url(#p6aeac9e715)" style="fill: none; stroke: #4c4c4c; stroke-linecap: round"/>
   </g>
   <g id="patch_10">
    <path d="M 45.234895 36.878238 
Q 94.390706 101.39524 142.86894 165.022921 
" clip-path="url(#p6aeac9e715)" style="fill: none; stroke: #4c4c4c; stroke-linecap: round"/>
    <path d="M 142.618947 163.704777 
L 142.86894 165.022921 
L 141.664429 164.432029 
" clip-path="url(#p6aeac9e715)" style="fill: none; stroke: #4c4c4c; stroke-linecap: round"/>
   </g>
   <g id="patch_11">
    <path d="M 103.053852 172.8 
Q 121.59265 172.8 139.013414 172.8 
" clip-path="url(#p6aeac9e715)" style="fill: none; stroke: #4c4c4c; stroke-linecap: round"/>
    <path d="M 137.813414 172.2 
L 139.013414 172.8 
L 137.813414 173.4 
" clip-path="url(#p6aeac9e715)" style="fill: none; stroke: #4c4c4c; stroke-linecap: round"/>
   </g>
   <g id="patch_12">
    <path d="M 154.042451 165.911845 
Q 175.996586 137.097043 197.273143 109.171561 
" clip-path="url(#p6aeac9e715)" style="fill: none; stroke: #4c4c4c; stroke-linecap: round"/>
    <path d="M 196.068633 109.762453 
L 197.273143 109.171561 
L 197.023151 110.489705 
" clip-path="url(#p6aeac9e715)" style="fill: none; stroke: #4c4c4c; stroke-linecap: round"/>
   </g>
   <g id="patch_13">
    <path d="M 154.042451 179.688155 
Q 175.996586 208.502957 197.273143 236.428439 
" clip-path="url(#p6aeac9e715)" style="fill: none; stroke: #4c4c4c; stroke-linecap: round"/>
    <path d="M 197.023151 235.110295 
L 197.273143 236.428439 
L 196.068633 235.837547 
" clip-path="url(#p6aeac9e715)" style="fill: none; stroke: #4c4c4c; stroke-linecap: round"/>
   </g>
   <g id="patch_14">
    <path d="M 205.32907 109.785691 
Q 230.39946 208.500354 255.194643 306.131385 
" clip-path="url(#p6aeac9e715)" style="fill: none; stroke: #4c4c4c; stroke-linecap: round"/>
    <path d="M 255.480796 304.820615 
L 255.194643 306.131385 
L 254.31772 305.116 
" clip-path="url(#p6aeac9e715)" style="fill: none; stroke: #4c4c4c; stroke-linecap: round"/>
   </g>
   <g id="patch_15">
    <path d="M 208.446229 94.506886 
Q 230.400364 65.692084 251.676921 37.766603 
" clip-path="url(#p6aeac9e715)" style="fill: none; stroke: #4c4c4c; stroke-linecap: round"/>
    <path d="M 250.472411 38.357495 
L 251.676921 37.766603 
L 251.426929 39.084747 
" clip-path="url(#p6aeac9e715)" style="fill: none; stroke: #4c4c4c; stroke-linecap: round"/>
   </g>
   <g id="patch_16">
    <path d="M 208.446229 108.283197 
Q 230.400364 137.097998 251.676921 165.02348 
" clip-path="url(#p6aeac9e715)" style="fill: none; stroke: #4c4c4c; stroke-linecap: round"/>
    <path d="M 251.426929 163.705336 
L 251.676921 165.02348 
L 250.472411 164.432588 
" clip-path="url(#p6aeac9e715)" style="fill: none; stroke: #4c4c4c; stroke-linecap: round"/>
   </g>
   <g id="patch_17">
    <path d="M 210.440215 239.452328 
Q 257.604238 208.500938 303.833531 178.162964 
" clip-path="url(#p6aeac9e715)" style="fill: none; stroke: #4c4c4c; stroke-linecap: round"/>
    <path d="M 302.501079 178.319723 
L 303.833531 178.162964 
L 303.159467 179.322981 
" clip-path="url(#p6aeac9e715)" style="fill: none; stroke: #4c4c4c; stroke-linecap: round"/>
   </g>
   <g id="patch_18">
    <path d="M 262.850007 36.878238 
Q 312.005818 101.39524 360.484052 165.022921 
" clip-path="url(#p6aeac9e715)" style="fill: none; stroke: #4c4c4c; stroke-linecap: round"/>
    <path d="M 360.234059 163.704777 
L 360.484052 165.022921 
L 359.279541 164.432029 
" clip-path="url(#p6aeac9e715)" style="fill: none; stroke: #4c4c4c; stroke-linecap: round"/>
   </g>
   <g id="patch_19">
    <path d="M 264.119285 35.692804 
Q 339.208571 101.39593 413.456451 166.362825 
" clip-path="url(#p6aeac9e715)" style="fill: none; stroke: #4c4c4c; stroke-linecap: round"/>
    <path d="M 412.948462 165.121073 
L 413.456451 166.362825 
L 412.158257 166.024165 
" clip-path="url(#p6aeac9e715)" style="fill: none; stroke: #4c4c4c; stroke-linecap: round"/>
   </g>
   <g id="patch_20">
    <path d="M 260.685013 307.516716 
Q 284.803434 244.205862 308.52384 181.939797 
" clip-path="url(#p6aeac9e715)" style="fill: none; stroke: #4c4c4c; stroke-linecap: round"/>
    <path d="M 307.535953 182.847585 
L 308.52384 181.939797 
L 308.657338 183.274779 
" clip-path="url(#p6aeac9e715)" style="fill: none; stroke: #4c4c4c; stroke-linecap: round"/>
   </g>
   <g id="patch_21">
    <path d="M 264.119285 309.907196 
Q 339.208571 244.20407 413.456451 179.237175 
" clip-path="url(#p6aeac9e715)" style="fill: none; stroke: #4c4c4c; stroke-linecap: round"/>
    <path d="M 412.158257 179.575835 
L 413.456451 179.237175 
L 412.948462 180.478927 
" clip-path="url(#p6aeac9e715)" style="fill: none; stroke: #4c4c4c; stroke-linecap: round"/>
   </g>
   <g id="patch_22">
    <path d="M 262.850007 308.721762 
Q 312.005818 244.20476 360.484052 180.577079 
" clip-path="url(#p6aeac9e715)" style="fill: none; stroke: #4c4c4c; stroke-linecap: round"/>
    <path d="M 359.279541 181.167971 
L 360.484052 180.577079 
L 360.234059 181.895223 
" clip-path="url(#p6aeac9e715)" style="fill: none; stroke: #4c4c4c; stroke-linecap: round"/>
   </g>
   <g id="patch_23">
    <path d="M 266.263526 172.8 
Q 339.206285 172.8 411.031011 172.8 
" clip-path="url(#p6aeac9e715)" style="fill: none; stroke: #4c4c4c; stroke-linecap: round"/>
    <path d="M 409.831011 172.2 
L 411.031011 172.8 
L 409.831011 173.4 
" clip-path="url(#p6aeac9e715)" style="fill: none; stroke: #4c4c4c; stroke-linecap: round"/>
   </g>
   <g id="patch_24">
    <path d="M 320.668964 172.8 
Q 339.207762 172.8 356.628526 172.8 
" clip-path="url(#p6aeac9e715)" style="fill: none; stroke: #4c4c4c; stroke-linecap: round"/>
    <path d="M 355.428526 172.2 
L 356.628526 172.8 
L 355.428526 173.4 
" clip-path="url(#p6aeac9e715)" style="fill: none; stroke: #4c4c4c; stroke-linecap: round"/>
   </g>
   <g id="patch_25">
    <path d="M 375.072742 172.8 
Q 393.61154 172.8 411.032304 172.8 
" clip-path="url(#p6aeac9e715)" style="fill: none; stroke: #4c4c4c; stroke-linecap: round"/>
    <path d="M 409.832304 172.2 
L 411.032304 172.8 
L 409.832304 173.4 
" clip-path="url(#p6aeac9e715)" style="fill: none; stroke: #4c4c4c; stroke-linecap: round"/>
   </g>
   <g id="PathCollection_1">
    <path d="M 39.986777 324.270171 
C 42.283503 324.270171 44.486471 323.357672 46.110501 321.733642 
C 47.734532 320.109611 48.647031 317.906644 48.647031 315.609917 
C 48.647031 313.313191 47.734532 311.110224 46.110501 309.486193 
C 44.486471 307.862162 42.283503 306.949663 39.986777 306.949663 
C 37.690051 306.949663 35.487083 307.862162 33.863053 309.486193 
C 32.239022 311.110224 31.326523 313.313191 31.326523 315.609917 
C 31.326523 317.906644 32.239022 320.109611 33.863053 321.733642 
C 35.487083 323.357672 37.690051 324.270171 39.986777 324.270171 
z
" clip-path="url(#p6aeac9e715)" style="fill: #ffff00; stroke: #000000"/>
    <path d="M 39.986777 181.460254 
C 42.283503 181.460254 44.486471 180.547755 46.110501 178.923724 
C 47.734532 177.299694 48.647031 175.096726 48.647031 172.8 
C 48.647031 170.503274 47.734532 168.300306 46.110501 166.676276 
C 44.486471 165.052245 42.283503 164.139746 39.986777 164.139746 
C 37.690051 164.139746 35.487083 165.052245 33.863053 166.676276 
C 32.239022 168.300306 31.326523 170.503274 31.326523 172.8 
C 31.326523 175.096726 32.239022 177.299694 33.863053 178.923724 
C 35.487083 180.547755 37.690051 181.460254 39.986777 181.460254 
z
" clip-path="url(#p6aeac9e715)" style="fill: #ffff00; stroke: #000000"/>
    <path d="M 39.986777 38.650337 
C 42.283503 38.650337 44.486471 37.737838 46.110501 36.113807 
C 47.734532 34.489776 48.647031 32.286809 48.647031 29.990083 
C 48.647031 27.693356 47.734532 25.490389 46.110501 23.866358 
C 44.486471 22.242328 42.283503 21.329829 39.986777 21.329829 
C 37.690051 21.329829 35.487083 22.242328 33.863053 23.866358 
C 32.239022 25.490389 31.326523 27.693356 31.326523 29.990083 
C 31.326523 32.286809 32.239022 34.489776 33.863053 36.113807 
C 35.487083 37.737838 37.690051 38.650337 39.986777 38.650337 
z
" clip-path="url(#p6aeac9e715)" style="fill: #ffff00; stroke: #000000"/>
    <path d="M 94.390555 181.460254 
C 96.687281 181.460254 98.890249 180.547755 100.514279 178.923724 
C 102.13831 177.299694 103.050809 175.096726 103.050809 172.8 
C 103.050809 170.503274 102.13831 168.300306 100.514279 166.676276 
C 98.890249 165.052245 96.687281 164.139746 94.390555 164.139746 
C 92.093829 164.139746 89.890861 165.052245 88.266831 166.676276 
C 86.6428 168.300306 85.730301 170.503274 85.730301 172.8 
C 85.730301 175.096726 86.6428 177.299694 88.266831 178.923724 
C 89.890861 180.547755 92.093829 181.460254 94.390555 181.460254 
z
" clip-path="url(#p6aeac9e715)" style="fill: #ffffff; stroke: #000000"/>
    <path d="M 148.794333 181.460254 
C 151.091059 181.460254 153.294027 180.547755 154.918057 178.923724 
C 156.542088 177.299694 157.454587 175.096726 157.454587 172.8 
C 157.454587 170.503274 156.542088 168.300306 154.918057 166.676276 
C 153.294027 165.052245 151.091059 164.139746 148.794333 164.139746 
C 146.497607 164.139746 144.294639 165.052245 142.670609 166.676276 
C 141.046578 168.300306 140.134079 170.503274 140.134079 172.8 
C 140.134079 175.096726 141.046578 177.299694 142.670609 178.923724 
C 144.294639 180.547755 146.497607 181.460254 148.794333 181.460254 
z
" clip-path="url(#p6aeac9e715)" style="fill: #ffffff; stroke: #000000"/>
    <path d="M 203.198111 110.055295 
C 205.494837 110.055295 207.697805 109.142796 209.321835 107.518766 
C 210.945866 105.894735 211.858365 103.691768 211.858365 101.395041 
C 211.858365 99.098315 210.945866 96.895348 209.321835 95.271317 
C 207.697805 93.647286 205.494837 92.734787 203.198111 92.734787 
C 200.901385 92.734787 198.698417 93.647286 197.074387 95.271317 
C 195.450356 96.895348 194.537857 99.098315 194.537857 101.395041 
C 194.537857 103.691768 195.450356 105.894735 197.074387 107.518766 
C 198.698417 109.142796 200.901385 110.055295 203.198111 110.055295 
z
" clip-path="url(#p6aeac9e715)" style="fill: #ffffff; stroke: #000000"/>
    <path d="M 203.198111 252.865213 
C 205.494837 252.865213 207.697805 251.952714 209.321835 250.328683 
C 210.945866 248.704652 211.858365 246.501685 211.858365 244.204959 
C 211.858365 241.908232 210.945866 239.705265 209.321835 238.081234 
C 207.697805 236.457204 205.494837 235.544705 203.198111 235.544705 
C 200.901385 235.544705 198.698417 236.457204 197.074387 238.081234 
C 195.450356 239.705265 194.537857 241.908232 194.537857 244.204959 
C 194.537857 246.501685 195.450356 248.704652 197.074387 250.328683 
C 198.698417 251.952714 200.901385 252.865213 203.198111 252.865213 
z
" clip-path="url(#p6aeac9e715)" style="fill: #ffffff; stroke: #000000"/>
    <path d="M 257.601889 38.650337 
C 259.898615 38.650337 262.101583 37.737838 263.725613 36.113807 
C 265.349644 34.489776 266.262143 32.286809 266.262143 29.990083 
C 266.262143 27.693356 265.349644 25.490389 263.725613 23.866358 
C 262.101583 22.242328 259.898615 21.329829 257.601889 21.329829 
C 255.305163 21.329829 253.102195 22.242328 251.478165 23.866358 
C 249.854134 25.490389 248.941635 27.693356 248.941635 29.990083 
C 248.941635 32.286809 249.854134 34.489776 251.478165 36.113807 
C 253.102195 37.737838 255.305163 38.650337 257.601889 38.650337 
z
" clip-path="url(#p6aeac9e715)" style="fill: #ffffff; stroke: #000000"/>
    <path d="M 257.601889 324.270171 
C 259.898615 324.270171 262.101583 323.357672 263.725613 321.733642 
C 265.349644 320.109611 266.262143 317.906644 266.262143 315.609917 
C 266.262143 313.313191 265.349644 311.110224 263.725613 309.486193 
C 262.101583 307.862162 259.898615 306.949663 257.601889 306.949663 
C 255.305163 306.949663 253.102195 307.862162 251.478165 309.486193 
C 249.854134 311.110224 248.941635 313.313191 248.941635 315.609917 
C 248.941635 317.906644 249.854134 320.109611 251.478165 321.733642 
C 253.102195 323.357672 255.305163 324.270171 257.601889 324.270171 
z
" clip-path="url(#p6aeac9e715)" style="fill: #ffffff; stroke: #000000"/>
    <path d="M 257.601889 181.460254 
C 259.898615 181.460254 262.101583 180.547755 263.725613 178.923724 
C 265.349644 177.299694 266.262143 175.096726 266.262143 172.8 
C 266.262143 170.503274 265.349644 168.300306 263.725613 166.676276 
C 262.101583 165.052245 259.898615 164.139746 257.601889 164.139746 
C 255.305163 164.139746 253.102195 165.052245 251.478165 166.676276 
C 249.854134 168.300306 248.941635 170.503274 248.941635 172.8 
C 248.941635 175.096726 249.854134 177.299694 251.478165 178.923724 
C 253.102195 180.547755 255.305163 181.460254 257.601889 181.460254 
z
" clip-path="url(#p6aeac9e715)" style="fill: #ffffff; stroke: #000000"/>
    <path d="M 312.005667 181.460254 
C 314.302393 181.460254 316.505361 180.547755 318.129391 178.923724 
C 319.753422 177.299694 320.665921 175.096726 320.665921 172.8 
C 320.665921 170.503274 319.753422 168.300306 318.129391 166.676276 
C 316.505361 165.052245 314.302393 164.139746 312.005667 164.139746 
C 309.708941 164.139746 307.505973 165.052245 305.881943 166.676276 
C 304.257912 168.300306 303.345413 170.503274 303.345413 172.8 
C 303.345413 175.096726 304.257912 177.299694 305.881943 178.923724 
C 307.505973 180.547755 309.708941 181.460254 312.005667 181.460254 
z
" clip-path="url(#p6aeac9e715)" style="fill: #ffffff; stroke: #000000"/>
    <path d="M 366.409445 181.460254 
C 368.706171 181.460254 370.909139 180.547755 372.533169 178.923724 
C 374.1572 177.299694 375.069699 175.096726 375.069699 172.8 
C 375.069699 170.503274 374.1572 168.300306 372.533169 166.676276 
C 370.909139 165.052245 368.706171 164.139746 366.409445 164.139746 
C 364.112719 164.139746 361.909751 165.052245 360.285721 166.676276 
C 358.66169 168.300306 357.749191 170.503274 357.749191 172.8 
C 357.749191 175.096726 358.66169 177.299694 360.285721 178.923724 
C 361.909751 180.547755 364.112719 181.460254 366.409445 181.460254 
z
" clip-path="url(#p6aeac9e715)" style="fill: #ffffff; stroke: #000000"/>
    <path d="M 420.813223 181.460254 
C 423.109949 181.460254 425.312917 180.547755 426.936947 178.923724 
C 428.560978 177.299694 429.473477 175.096726 429.473477 172.8 
C 429.473477 170.503274 428.560978 168.300306 426.936947 166.676276 
C 425.312917 165.052245 423.109949 164.139746 420.813223 164.139746 
C 418.516497 164.139746 416.313529 165.052245 414.689499 166.676276 
C 413.065468 168.300306 412.152969 170.503274 412.152969 172.8 
C 412.152969 175.096726 413.065468 177.299694 414.689499 178.923724 
C 416.313529 180.547755 418.516497 181.460254 420.813223 181.460254 
z
" clip-path="url(#p6aeac9e715)" style="fill: #0000ff; stroke: #000000"/>
   </g>
  </g>
 </g>
 <defs>
  <clipPath id="p6aeac9e715">
   <rect x="0" y="0" width="460.8" height="345.6"/>
  </clipPath>
 </defs>
</svg>
